  0
SECTION
  2
HEADER
  9
$ACADVER
  1
AC1014
  9
$HANDSEED
  5
FFFF
  9
$MEASUREMENT
 70
     1
  0
ENDSEC
  0
SECTION
  2
TABLES
  0
TABLE
  2
VPORT
  5
8
330
0
100
AcDbSymbolTable
 70
     4
  0
VPORT
  5
2E
330
8
100
AcDbSymbolTableRecord
100
AcDbViewportTableRecord
  2
*ACTIVE
 70
     0
 10
0.0
 20
0.0
 11
1.0
 21
1.0
 12
210.0
 22
148.5
 13
0.0
 23
0.0
 14
10.0
 24
10.0
 15
10.0
 25
10.0
 16
0.0
 26
0.0
 36
1.0
 17
0.0
 27
0.0
 37
0.0
 40
341.0
 41
1.24
 42
50.0
 43
0.0
 44
0.0
 50
0.0
 51
0.0
 71
     0
 72
   100
 73
     1
 74
     3
 75
     0
 76
     0
 77
     0
 78
     0
  0
ENDTAB
  0
TABLE
  2
LTYPE
  5
5
330
0
100
AcDbSymbolTable
 70
     1
  0
LTYPE
  5
14
330
5
100
AcDbSymbolTableRecord
100
AcDbLinetypeTableRecord
  2
BYBLOCK
 70
     0
  3

 72
    65
 73
     0
 40
0.0
  0
LTYPE
  5
15
330
5
100
AcDbSymbolTableRecord
100
AcDbLinetypeTableRecord
  2
BYLAYER
 70
     0
  3

 72
    65
 73
     0
 40
0.0
  0
LTYPE
  5
16
330
5
100
AcDbSymbolTableRecord
100
AcDbLinetypeTableRecord
  2
CONTINUOUS
 70
     0
  3
Solid line
 72
    65
 73
     0
 40
0.0
  0
ENDTAB
  0
TABLE
  2
LAYER
  5
2
100
AcDbSymbolTable
 70
2
  0
LAYER
  5
50
100
AcDbSymbolTableRecord
100
AcDbLayerTableRecord
  2
0
 70
0
  6
CONTINUOUS
  0
LAYER
  5
51
100
AcDbSymbolTableRecord
100
AcDbLayerTableRecord
  2
Layer_1
 70
0
  6
CONTINUOUS
  0
ENDTAB
  0
TABLE
  2
STYLE
  5
3
330
0
100
AcDbSymbolTable
 70
     1
  0
STYLE
  5
11
330
3
100
AcDbSymbolTableRecord
100
AcDbTextStyleTableRecord
  2
STANDARD
 70
     0
 40
0.0
 41
1.0
 50
0.0
 71
     0
 42
2.5
  3
txt
  4

  0
ENDTAB
  0
TABLE
  2
VIEW
  5
6
330
0
100
AcDbSymbolTable
 70
     0
  0
ENDTAB
  0
TABLE
  2
UCS
  5
7
330
0
100
AcDbSymbolTable
 70
     0
  0
ENDTAB
  0
TABLE
  2
APPID
  5
9
330
0
100
AcDbSymbolTable
 70
     2
  0
APPID
  5
12
330
9
100
AcDbSymbolTableRecord
100
AcDbRegAppTableRecord
  2
ACAD
 70
     0
  0
ENDTAB
  0
TABLE
  2
DIMSTYLE
  5
A
330
0
100
AcDbSymbolTable
 70
     1
  0
DIMSTYLE
105
27
330
A
100
AcDbSymbolTableRecord
100
AcDbDimStyleTableRecord
  2
ISO-25
 70
     0
  3

  4

  5

  6

  7

 40
1.0
 41
2.5
 42
0.625
 43
3.75
 44
1.25
 45
0.0
 46
0.0
 47
0.0
 48
0.0
140
2.5
141
2.5
142
0.0
143
0.03937007874016
144
1.0
145
0.0
146
1.0
147
0.625
 71
     0
 72
     0
 73
     0
 74
     0
 75
     0
 76
     0
 77
     1
 78
     8
170
     0
171
     3
172
     1
173
     0
174
     0
175
     0
176
     0
177
     0
178
     0
270
     2
271
     2
272
     2
273
     2
274
     3
340
11
275
     0
280
     0
281
     0
282
     0
283
     0
284
     8
285
     0
286
     0
287
     3
288
     0
  0
ENDTAB
  0
TABLE
  2
BLOCK_RECORD
  5
1
330
0
100
AcDbSymbolTable
 70
     1
  0
BLOCK_RECORD
  5
1F
330
1
100
AcDbSymbolTableRecord
100
AcDbBlockTableRecord
  2
*MODEL_SPACE
  0
BLOCK_RECORD
  5
1B
330
1
100
AcDbSymbolTableRecord
100
AcDbBlockTableRecord
  2
*PAPER_SPACE
  0
ENDTAB
  0
ENDSEC
  0
SECTION
  2
BLOCKS
  0
BLOCK
  5
20
330
1F
100
AcDbEntity
  8
0
100
AcDbBlockBegin
  2
*MODEL_SPACE
 70
     0
 10
0.0
 20
0.0
 30
0.0
  3
*MODEL_SPACE
  1

  0
ENDBLK
  5
21
330
1F
100
AcDbEntity
  8
0
100
AcDbBlockEnd
  0
BLOCK
  5
1C
330
1B
100
AcDbEntity
 67
     1
  8
0
100
AcDbBlockBegin
  2
*PAPER_SPACE
  1

  0
ENDBLK
  5
1D
330
1B
100
AcDbEntity
 67
     1
  8
0
100
AcDbBlockEnd
  0
ENDSEC
  0
SECTION
  2
ENTITIES
  0
LWPOLYLINE
  5
100
100
AcDbEntity
  8
Layer_1
 62
7
100
AcDbPolyline
 90
82
 70
0
 10
96.025000
 20
250.192312
 30
0.0
 10
88.600000
 20
235.342312
 30
0.0
 10
80.225000
 20
220.492312
 30
0.0
 10
76.100000
 20
224.717312
 30
0.0
 10
51.025000
 20
244.467312
 30
0.0
 10
40.900000
 20
243.717312
 30
0.0
 10
40.050000
 20
241.292312
 30
0.0
 10
59.025000
 20
226.442312
 30
0.0
 10
78.575000
 20
210.242312
 30
0.0
 10
90.375000
 20
152.342312
 30
0.0
 10
86.225000
 20
153.767312
 30
0.0
 10
63.450000
 20
162.167312
 30
0.0
 10
57.250000
 20
162.142312
 30
0.0
 10
64.850000
 20
131.767312
 30
0.0
 10
68.600000
 20
123.267312
 30
0.0
 10
37.500000
 20
140.592312
 30
0.0
 10
36.700000
 20
146.592312
 30
0.0
 10
37.225000
 20
158.867312
 30
0.0
 10
35.250000
 20
159.217312
 30
0.0
 10
30.375000
 20
148.642312
 30
0.0
 10
29.500000
 20
145.217312
 30
0.0
 10
25.150000
 20
151.842312
 30
0.0
 10
20.800000
 20
159.767312
 30
0.0
 10
11.575000
 20
163.692312
 30
0.0
 10
5.575000
 20
158.017312
 30
0.0
 10
14.775000
 20
149.667312
 30
0.0
 10
23.975000
 20
141.267312
 30
0.0
 10
19.525000
 20
140.492312
 30
0.0
 10
12.150000
 20
142.492312
 30
0.0
 10
1.475000
 20
142.942312
 30
0.0
 10
1.000000
 20
138.742312
 30
0.0
 10
8.725000
 20
130.892312
 30
0.0
 10
13.275000
 20
132.192312
 30
0.0
 10
22.625000
 20
133.117312
 30
0.0
 10
50.625000
 20
121.842312
 30
0.0
 10
75.175000
 20
110.692312
 30
0.0
 10
77.725000
 20
112.492312
 30
0.0
 10
71.525000
 20
132.592312
 30
0.0
 10
65.575000
 20
151.992312
 30
0.0
 10
68.025000
 20
153.292312
 30
0.0
 10
93.750000
 20
145.092312
 30
0.0
 10
105.175000
 20
93.692312
 30
0.0
 10
115.600000
 20
42.292312
 30
0.0
 10
123.175000
 20
42.217312
 30
0.0
 10
104.750000
 20
139.942312
 30
0.0
 10
104.475000
 20
145.067312
 30
0.0
 10
108.150000
 20
153.942312
 30
0.0
 10
118.275000
 20
176.817312
 30
0.0
 10
123.525000
 20
162.492312
 30
0.0
 10
142.850000
 20
119.992312
 30
0.0
 10
148.925000
 20
118.517312
 30
0.0
 10
165.175000
 20
135.692312
 30
0.0
 10
185.675000
 20
177.792312
 30
0.0
 10
191.950000
 20
188.192312
 30
0.0
 10
198.100000
 20
194.492312
 30
0.0
 10
211.175000
 20
219.767312
 30
0.0
 10
206.050000
 20
216.492312
 30
0.0
 10
190.975000
 20
200.492312
 30
0.0
 10
190.475000
 20
203.892312
 30
0.0
 10
194.375000
 20
228.467312
 30
0.0
 10
193.150000
 20
232.517312
 30
0.0
 10
189.500000
 20
231.217312
 30
0.0
 10
181.100000
 20
210.092312
 30
0.0
 10
179.525000
 20
200.642312
 30
0.0
 10
172.700000
 20
205.617312
 30
0.0
 10
155.450000
 20
214.442312
 30
0.0
 10
152.950000
 20
212.442312
 30
0.0
 10
164.775000
 20
200.517312
 30
0.0
 10
176.300000
 20
188.542312
 30
0.0
 10
173.025000
 20
180.092312
 30
0.0
 10
146.625000
 20
130.092312
 30
0.0
 10
138.775000
 20
148.892312
 30
0.0
 10
118.175000
 20
189.817312
 30
0.0
 10
105.750000
 20
167.692312
 30
0.0
 10
101.175000
 20
156.092312
 30
0.0
 10
92.300000
 20
187.492312
 30
0.0
 10
86.075000
 20
213.292312
 30
0.0
 10
90.975000
 20
222.692312
 30
0.0
 10
101.425000
 20
247.642312
 30
0.0
 10
98.600000
 20
249.942312
 30
0.0
 10
96.025000
 20
250.192312
 30
0.0
 10
96.025000
 20
250.192312
 30
0.0
  0
LWPOLYLINE
  5
101
100
AcDbEntity
  8
Layer_1
 62
7
100
AcDbPolyline
 90
57
 70
0
 10
200.550000
 20
82.092312
 30
0.0
 10
194.800000
 20
71.817312
 30
0.0
 10
188.750000
 20
62.617312
 30
0.0
 10
184.425000
 20
71.692312
 30
0.0
 10
176.025000
 20
79.292312
 30
0.0
 10
172.825000
 20
76.092312
 30
0.0
 10
178.925000
 20
67.142312
 30
0.0
 10
185.025000
 20
58.192312
 30
0.0
 10
172.125000
 20
35.542312
 30
0.0
 10
159.200000
 20
12.892312
 30
0.0
 10
159.375000
 20
42.517312
 30
0.0
 10
158.150000
 20
74.317312
 30
0.0
 10
152.950000
 20
76.492312
 30
0.0
 10
132.075000
 20
52.967312
 30
0.0
 10
118.825000
 20
32.767312
 30
0.0
 10
97.925000
 20
45.442312
 30
0.0
 10
59.000000
 20
68.117312
 30
0.0
 10
55.250000
 20
66.967312
 30
0.0
 10
60.375000
 20
46.892312
 30
0.0
 10
77.300000
 20
15.142312
 30
0.0
 10
61.675000
 20
16.967312
 30
0.0
 10
46.525000
 20
19.242312
 30
0.0
 10
43.150000
 20
26.667312
 30
0.0
 10
35.400000
 20
33.592312
 30
0.0
 10
36.425000
 20
27.617312
 30
0.0
 10
38.650000
 20
22.092312
 30
0.0
 10
32.125000
 20
23.767312
 30
0.0
 10
24.450000
 20
22.367312
 30
0.0
 10
29.750000
 20
18.717312
 30
0.0
 10
35.575000
 20
16.767312
 30
0.0
 10
31.400000
 20
14.017312
 30
0.0
 10
28.325000
 20
8.542312
 30
0.0
 10
36.300000
 20
10.567312
 30
0.0
 10
43.125000
 20
13.542312
 30
0.0
 10
54.950000
 20
11.017312
 30
0.0
 10
90.175000
 20
6.217312
 30
0.0
 10
78.225000
 20
29.342312
 30
0.0
 10
64.200000
 20
52.992312
 30
0.0
 10
115.850000
 20
21.817312
 30
0.0
 10
120.300000
 20
18.892312
 30
0.0
 10
126.400000
 20
24.892312
 30
0.0
 10
139.625000
 20
44.567312
 30
0.0
 10
150.575000
 20
61.367312
 30
0.0
 10
151.025000
 20
43.167312
 30
0.0
 10
152.250000
 20
4.167312
 30
0.0
 10
155.000000
 20
0.042312
 30
0.0
 10
173.625000
 20
28.367312
 30
0.0
 10
191.675000
 20
56.092312
 30
0.0
 10
198.025000
 20
56.292312
 30
0.0
 10
207.825000
 20
59.517312
 30
0.0
 10
207.575000
 20
61.692312
 30
0.0
 10
201.650000
 20
61.392312
 30
0.0
 10
196.175000
 20
62.192312
 30
0.0
 10
200.250000
 20
71.067312
 30
0.0
 10
202.400000
 20
80.667312
 30
0.0
 10
200.550000
 20
82.092312
 30
0.0
 10
200.550000
 20
82.092312
 30
0.0
  0
ENDSEC
  0
SECTION
  2
OBJECTS
  0
DICTIONARY
  5
C
330
0
100
AcDbDictionary
  3
ACAD_GROUP
350
D
  3
ACAD_MLINESTYLE
350
17
  0
DICTIONARY
  5
D
330
C
100
AcDbDictionary
  0
DICTIONARY
  5
1A
330
C
100
AcDbDictionary
  0
DICTIONARY
  5
17
330
C
100
AcDbDictionary
  3
STANDARD
350
18
  0
DICTIONARY
  5
19
330
C
100
AcDbDictionary
  0
ENDSEC
  0
EOF
