999
Inkscape export via "Better DXF Output" (bob@bobcookdev.com)
  0
SECTION
  2
HEADER
  9
$ACADVER
  1
AC1014
  9
$HANDSEED
  5
FFFF
  0
ENDSEC
  0
SECTION
  2
TABLES
  0
TABLE
  2
VPORT
  5
8
330
0
100
AcDbSymbolTable
 70
     4
  0
VPORT
  5
2E
330
8
100
AcDbSymbolTableRecord
100
AcDbViewportTableRecord
  2
*ACTIVE
 70
     0
 10
0.0
 20
0.0
 11
1.0
 21
1.0
 12
4.25
 22
5.5
 13
0.0
 23
0.0
 14
10.0
 24
10.0
 15
10.0
 25
10.0
 16
0.0
 26
0.0
 36
1.0
 17
0.0
 27
0.0
 37
0.0
 40
11
 41
1.24
 42
50.0
 43
0.0
 44
0.0
 50
0.0
 51
0.0
 71
     0
 72
   100
 73
     1
 74
     3
 75
     0
 76
     0
 77
     0
 78
     0
  0
ENDTAB
  0
TABLE
  2
LTYPE
  5
5
330
0
100
AcDbSymbolTable
 70
     1
  0
LTYPE
  5
14
330
5
100
AcDbSymbolTableRecord
100
AcDbLinetypeTableRecord
  2
BYBLOCK
 70
     0
  3

 72
    65
 73
     0
 40
0.0
  0
LTYPE
  5
15
330
5
100
AcDbSymbolTableRecord
100
AcDbLinetypeTableRecord
  2
BYLAYER
 70
     0
  3

 72
    65
 73
     0
 40
0.0
  0
LTYPE
  5
16
330
5
100
AcDbSymbolTableRecord
100
AcDbLinetypeTableRecord
  2
CONTINUOUS
 70
     0
  3
Solid line
 72
    65
 73
     0
 40
0.0
  0
ENDTAB
  0
TABLE
  2
LAYER
  5
2
330
0
100
AcDbSymbolTable
 70
1
  0
LAYER
  5
10
330
2
100
AcDbSymbolTableRecord
100
AcDbLayerTableRecord
  2
0
 70
     0
 62
     7
  6
CONTINUOUS
  0
ENDTAB
  0
TABLE
  2
STYLE
  5
3
330
0
100
AcDbSymbolTable
 70
     1
  0
STYLE
  5
11
330
3
100
AcDbSymbolTableRecord
100
AcDbTextStyleTableRecord
  2
STANDARD
 70
     0
 40
0.0
 41
1.0
 50
0.0
 71
     0
 42
2.5
  3
txt
  4

  0
ENDTAB
  0
TABLE
  2
VIEW
  5
6
330
0
100
AcDbSymbolTable
 70
     0
  0
ENDTAB
  0
TABLE
  2
UCS
  5
7
330
0
100
AcDbSymbolTable
 70
     0
  0
ENDTAB
  0
TABLE
  2
APPID
  5
9
330
0
100
AcDbSymbolTable
 70
     2
  0
APPID
  5
12
330
9
100
AcDbSymbolTableRecord
100
AcDbRegAppTableRecord
  2
ACAD
 70
     0
  0
ENDTAB
  0
TABLE
  2
DIMSTYLE
  5
A
330
0
100
AcDbSymbolTable
 70
     1
  0
DIMSTYLE
105
27
330
A
100
AcDbSymbolTableRecord
100
AcDbDimStyleTableRecord
  2
ISO-25
 70
     0
  3

  4

  5

  6

  7

 40
1.0
 41
2.5
 42
0.625
 43
3.75
 44
1.25
 45
0.0
 46
0.0
 47
0.0
 48
0.0
140
2.5
141
2.5
142
0.0
143
0.03937007874016
144
1.0
145
0.0
146
1.0
147
0.625
 71
     0
 72
     0
 73
     0
 74
     0
 75
     0
 76
     0
 77
     1
 78
     8
170
     0
171
     3
172
     1
173
     0
174
     0
175
     0
176
     0
177
     0
178
     0
270
     2
271
     2
272
     2
273
     2
274
     3
340
11
275
     0
280
     0
281
     0
282
     0
283
     0
284
     8
285
     0
286
     0
287
     3
288
     0
  0
ENDTAB
  0
TABLE
  2
BLOCK_RECORD
  5
1
330
0
100
AcDbSymbolTable
 70
     1
  0
BLOCK_RECORD
  5
1F
330
1
100
AcDbSymbolTableRecord
100
AcDbBlockTableRecord
  2
*MODEL_SPACE
  0
BLOCK_RECORD
  5
1B
330
1
100
AcDbSymbolTableRecord
100
AcDbBlockTableRecord
  2
*PAPER_SPACE
  0
ENDTAB
  0
ENDSEC
  0
SECTION
  2
BLOCKS
  0
BLOCK
  5
20
330
1F
100
AcDbEntity
  8
0
100
AcDbBlockBegin
  2
*MODEL_SPACE
 70
     0
 10
0.0
 20
0.0
 30
0.0
  3
*MODEL_SPACE
  1

  0
ENDBLK
  5
21
330
1F
100
AcDbEntity
  8
0
100
AcDbBlockEnd
  0
BLOCK
  5
1C
330
1B
100
AcDbEntity
 67
     1
  8
0
100
AcDbBlockBegin
  2
*PAPER_SPACE
  1

  0
ENDBLK
  5
1D
330
1B
100
AcDbEntity
 67
     1
  8
0
100
AcDbBlockEnd
  0
ENDSEC
  0
SECTION
  2
ENTITIES
0
LINE
8
Layer 1
62
4
5
100
100
AcDbEntity
100
AcDbLine
10
161.108861
20
238.387654
30
0.0
11
149.539937
21
238.431760
31
0.0
0
LINE
8
Layer 1
62
4
5
101
100
AcDbEntity
100
AcDbLine
10
149.539937
20
238.431760
30
0.0
11
146.471745
21
238.265485
31
0.0
0
LINE
8
Layer 1
62
4
5
102
100
AcDbEntity
100
AcDbLine
10
146.471745
20
238.265485
30
0.0
11
143.443120
21
237.817805
31
0.0
0
LINE
8
Layer 1
62
4
5
103
100
AcDbEntity
100
AcDbLine
10
143.443120
20
237.817805
30
0.0
11
137.462212
21
236.447822
31
0.0
0
LINE
8
Layer 1
62
4
5
104
100
AcDbEntity
100
AcDbLine
10
137.462212
20
236.447822
30
0.0
11
133.080645
21
234.919749
31
0.0
0
LINE
8
Layer 1
62
4
5
105
100
AcDbEntity
100
AcDbLine
10
133.080645
20
234.919749
30
0.0
11
128.823844
21
233.083361
31
0.0
0
LINE
8
Layer 1
62
4
5
106
100
AcDbEntity
100
AcDbLine
10
128.823844
20
233.083361
30
0.0
11
124.151055
21
230.646825
31
0.0
0
LINE
8
Layer 1
62
4
5
107
100
AcDbEntity
100
AcDbLine
10
124.151055
20
230.646825
30
0.0
11
126.162350
21
231.812032
31
0.0
0
LINE
8
Layer 1
62
4
5
108
100
AcDbEntity
100
AcDbLine
10
126.162350
20
231.812032
30
0.0
11
134.413495
21
236.375971
31
0.0
0
LINE
8
Layer 1
62
4
5
109
100
AcDbEntity
100
AcDbLine
10
134.413495
20
236.375971
30
0.0
11
134.470427
21
236.391874
31
0.0
0
LINE
8
Layer 1
62
4
5
10a
100
AcDbEntity
100
AcDbLine
10
134.470427
20
236.391874
30
0.0
11
134.037487
21
236.114965
31
0.0
0
LINE
8
Layer 1
62
4
5
10b
100
AcDbEntity
100
AcDbLine
10
134.037487
20
236.114965
30
0.0
11
132.882857
21
235.377675
31
0.0
0
LINE
8
Layer 1
62
4
5
10c
100
AcDbEntity
100
AcDbLine
10
132.882857
20
235.377675
30
0.0
11
129.071573
21
232.618555
31
0.0
0
LINE
8
Layer 1
62
4
5
10d
100
AcDbEntity
100
AcDbLine
10
129.071573
20
232.618555
30
0.0
11
126.573776
21
230.584649
31
0.0
0
LINE
8
Layer 1
62
4
5
10e
100
AcDbEntity
100
AcDbLine
10
126.573776
20
230.584649
30
0.0
11
124.239878
21
228.390699
31
0.0
0
LINE
8
Layer 1
62
4
5
10f
100
AcDbEntity
100
AcDbLine
10
124.239878
20
228.390699
30
0.0
11
122.064924
21
226.040981
31
0.0
0
LINE
8
Layer 1
62
4
5
110
100
AcDbEntity
100
AcDbLine
10
122.064924
20
226.040981
30
0.0
11
120.043962
21
223.539774
31
0.0
0
LINE
8
Layer 1
62
4
5
111
100
AcDbEntity
100
AcDbLine
10
120.043962
20
223.539774
30
0.0
11
119.027923
21
222.061467
31
0.0
0
LINE
8
Layer 1
62
4
5
112
100
AcDbEntity
100
AcDbLine
10
119.027923
20
222.061467
30
0.0
11
118.276611
21
220.487141
31
0.0
0
LINE
8
Layer 1
62
4
5
113
100
AcDbEntity
100
AcDbLine
10
118.276611
20
220.487141
30
0.0
11
117.786699
21
218.815973
31
0.0
0
LINE
8
Layer 1
62
4
5
114
100
AcDbEntity
100
AcDbLine
10
117.786699
20
218.815973
30
0.0
11
117.554863
21
217.047139
31
0.0
0
LINE
8
Layer 1
62
4
5
115
100
AcDbEntity
100
AcDbLine
10
117.554863
20
217.047139
30
0.0
11
117.874652
21
215.450880
31
0.0
0
LINE
8
Layer 1
62
4
5
116
100
AcDbEntity
100
AcDbLine
10
117.874652
20
215.450880
30
0.0
11
118.452065
21
213.949265
31
0.0
0
LINE
8
Layer 1
62
4
5
117
100
AcDbEntity
100
AcDbLine
10
118.452065
20
213.949265
30
0.0
11
119.984687
21
211.093500
31
0.0
0
LINE
8
Layer 1
62
4
5
118
100
AcDbEntity
100
AcDbLine
10
119.984687
20
211.093500
30
0.0
11
121.084447
21
208.503314
31
0.0
0
LINE
8
Layer 1
62
4
5
119
100
AcDbEntity
100
AcDbLine
10
121.084447
20
208.503314
30
0.0
11
122.012563
21
205.843707
31
0.0
0
LINE
8
Layer 1
62
4
5
11a
100
AcDbEntity
100
AcDbLine
10
122.012563
20
205.843707
30
0.0
11
122.552504
21
204.159359
31
0.0
0
LINE
8
Layer 1
62
4
5
11b
100
AcDbEntity
100
AcDbLine
10
122.552504
20
204.159359
30
0.0
11
123.285437
21
202.566848
31
0.0
0
LINE
8
Layer 1
62
4
5
11c
100
AcDbEntity
100
AcDbLine
10
123.285437
20
202.566848
30
0.0
11
125.162629
21
199.589829
31
0.0
0
LINE
8
Layer 1
62
4
5
11d
100
AcDbEntity
100
AcDbLine
10
125.162629
20
199.589829
30
0.0
11
126.198286
21
198.175382
31
0.0
0
LINE
8
Layer 1
62
4
5
11e
100
AcDbEntity
100
AcDbLine
10
126.198286
20
198.175382
30
0.0
11
127.352164
21
196.856732
31
0.0
0
LINE
8
Layer 1
62
4
5
11f
100
AcDbEntity
100
AcDbLine
10
127.352164
20
196.856732
30
0.0
11
129.827649
21
194.370490
31
0.0
0
LINE
8
Layer 1
62
4
5
120
100
AcDbEntity
100
AcDbLine
10
129.827649
20
194.370490
30
0.0
11
131.325089
21
193.076833
31
0.0
0
LINE
8
Layer 1
62
4
5
121
100
AcDbEntity
100
AcDbLine
10
131.325089
20
193.076833
30
0.0
11
132.930435
21
191.931235
31
0.0
0
LINE
8
Layer 1
62
4
5
122
100
AcDbEntity
100
AcDbLine
10
132.930435
20
191.931235
30
0.0
11
136.304985
21
189.874055
31
0.0
0
LINE
8
Layer 1
62
4
5
123
100
AcDbEntity
100
AcDbLine
10
136.304985
20
189.874055
30
0.0
11
137.694329
21
188.940082
31
0.0
0
LINE
8
Layer 1
62
4
5
124
100
AcDbEntity
100
AcDbLine
10
137.694329
20
188.940082
30
0.0
11
138.975889
21
187.880469
31
0.0
0
LINE
8
Layer 1
62
4
5
125
100
AcDbEntity
100
AcDbLine
10
138.975889
20
187.880469
30
0.0
11
141.355775
21
185.540578
31
0.0
0
LINE
8
Layer 1
62
4
5
126
100
AcDbEntity
100
AcDbLine
10
141.355775
20
185.540578
30
0.0
11
142.499766
21
184.198724
31
0.0
0
LINE
8
Layer 1
62
4
5
127
100
AcDbEntity
100
AcDbLine
10
142.499766
20
184.198724
30
0.0
11
143.484795
21
182.773317
31
0.0
0
LINE
8
Layer 1
62
4
5
128
100
AcDbEntity
100
AcDbLine
10
143.484795
20
182.773317
30
0.0
11
144.305836
21
181.251376
31
0.0
0
LINE
8
Layer 1
62
4
5
129
100
AcDbEntity
100
AcDbLine
10
144.305836
20
181.251376
30
0.0
11
144.957862
21
179.619923
31
0.0
0
LINE
8
Layer 1
62
4
5
12a
100
AcDbEntity
100
AcDbLine
10
144.957862
20
179.619923
30
0.0
11
145.303494
21
177.980621
31
0.0
0
LINE
8
Layer 1
62
4
5
12b
100
AcDbEntity
100
AcDbLine
10
145.303494
20
177.980621
30
0.0
11
145.505434
21
176.321048
31
0.0
0
LINE
8
Layer 1
62
4
5
12c
100
AcDbEntity
100
AcDbLine
10
145.505434
20
176.321048
30
0.0
11
145.652809
21
172.976392
31
0.0
0
LINE
8
Layer 1
62
4
5
12d
100
AcDbEntity
100
AcDbLine
10
145.652809
20
172.976392
30
0.0
11
145.639178
21
166.930636
31
0.0
0
LINE
8
Layer 1
62
4
5
12e
100
AcDbEntity
100
AcDbLine
10
145.639178
20
166.930636
30
0.0
11
145.592636
21
163.192714
31
0.0
0
LINE
8
Layer 1
62
4
5
12f
100
AcDbEntity
100
AcDbLine
10
145.592636
20
163.192714
30
0.0
11
145.086956
21
159.495350
31
0.0
0
LINE
8
Layer 1
62
4
5
130
100
AcDbEntity
100
AcDbLine
10
145.086956
20
159.495350
30
0.0
11
144.110182
21
155.620326
31
0.0
0
LINE
8
Layer 1
62
4
5
131
100
AcDbEntity
100
AcDbLine
10
144.110182
20
155.620326
30
0.0
11
142.792715
21
151.848438
31
0.0
0
LINE
8
Layer 1
62
4
5
132
100
AcDbEntity
100
AcDbLine
10
142.792715
20
151.848438
30
0.0
11
141.510734
21
149.157949
31
0.0
0
LINE
8
Layer 1
62
4
5
133
100
AcDbEntity
100
AcDbLine
10
141.510734
20
149.157949
30
0.0
11
140.707557
21
147.908155
31
0.0
0
LINE
8
Layer 1
62
4
5
134
100
AcDbEntity
100
AcDbLine
10
140.707557
20
147.908155
30
0.0
11
139.772398
21
146.746280
31
0.0
0
LINE
8
Layer 1
62
4
5
135
100
AcDbEntity
100
AcDbLine
10
139.772398
20
146.746280
30
0.0
11
136.549024
21
144.104340
31
0.0
0
LINE
8
Layer 1
62
4
5
136
100
AcDbEntity
100
AcDbLine
10
136.549024
20
144.104340
30
0.0
11
133.082441
21
141.760636
31
0.0
0
LINE
8
Layer 1
62
4
5
137
100
AcDbEntity
100
AcDbLine
10
133.082441
20
141.760636
30
0.0
11
129.404043
21
139.772410
31
0.0
0
LINE
8
Layer 1
62
4
5
138
100
AcDbEntity
100
AcDbLine
10
129.404043
20
139.772410
30
0.0
11
125.545226
21
138.196908
31
0.0
0
LINE
8
Layer 1
62
4
5
139
100
AcDbEntity
100
AcDbLine
10
125.545226
20
138.196908
30
0.0
11
124.694916
21
137.829754
31
0.0
0
LINE
8
Layer 1
62
4
5
13a
100
AcDbEntity
100
AcDbLine
10
124.694916
20
137.829754
30
0.0
11
123.969932
21
137.351433
31
0.0
0
LINE
8
Layer 1
62
4
5
13b
100
AcDbEntity
100
AcDbLine
10
123.969932
20
137.351433
30
0.0
11
123.036873
21
136.931061
31
0.0
0
LINE
8
Layer 1
62
4
5
13c
100
AcDbEntity
100
AcDbLine
10
123.036873
20
136.931061
30
0.0
11
122.055147
21
136.637835
31
0.0
0
LINE
8
Layer 1
62
4
5
13d
100
AcDbEntity
100
AcDbLine
10
122.055147
20
136.637835
30
0.0
11
120.038865
21
136.272079
31
0.0
0
LINE
8
Layer 1
62
4
5
13e
100
AcDbEntity
100
AcDbLine
10
120.038865
20
136.272079
30
0.0
11
116.578599
21
136.008772
31
0.0
0
LINE
8
Layer 1
62
4
5
13f
100
AcDbEntity
100
AcDbLine
10
116.578599
20
136.008772
30
0.0
11
113.106931
21
135.983022
31
0.0
0
LINE
8
Layer 1
62
4
5
140
100
AcDbEntity
100
AcDbLine
10
113.106931
20
135.983022
30
0.0
11
110.319737
21
135.983081
31
0.0
0
LINE
8
Layer 1
62
4
5
141
100
AcDbEntity
100
AcDbLine
10
110.319737
20
135.983081
30
0.0
11
107.542071
21
136.145842
31
0.0
0
LINE
8
Layer 1
62
4
5
142
100
AcDbEntity
100
AcDbLine
10
107.542071
20
136.145842
30
0.0
11
102.010427
21
136.791332
31
0.0
0
LINE
8
Layer 1
62
4
5
143
100
AcDbEntity
100
AcDbLine
10
102.010427
20
136.791332
30
0.0
11
99.854748
21
137.029085
31
0.0
0
LINE
8
Layer 1
62
4
5
144
100
AcDbEntity
100
AcDbLine
10
99.854748
20
137.029085
30
0.0
11
97.726616
21
137.402461
31
0.0
0
LINE
8
Layer 1
62
4
5
145
100
AcDbEntity
100
AcDbLine
10
97.726616
20
137.402461
30
0.0
11
93.511257
21
138.376994
31
0.0
0
LINE
8
Layer 1
62
4
5
146
100
AcDbEntity
100
AcDbLine
10
93.511257
20
138.376994
30
0.0
11
87.878590
21
140.191663
31
0.0
0
LINE
8
Layer 1
62
4
5
147
100
AcDbEntity
100
AcDbLine
10
87.878590
20
140.191663
30
0.0
11
85.535463
21
141.228031
31
0.0
0
LINE
8
Layer 1
62
4
5
148
100
AcDbEntity
100
AcDbLine
10
85.535463
20
141.228031
30
0.0
11
83.117111
21
142.052276
31
0.0
0
LINE
8
Layer 1
62
4
5
149
100
AcDbEntity
100
AcDbLine
10
83.117111
20
142.052276
30
0.0
11
81.247578
21
141.839880
31
0.0
0
LINE
8
Layer 1
62
4
5
14a
100
AcDbEntity
100
AcDbLine
10
81.247578
20
141.839880
30
0.0
11
79.391198
21
141.423399
31
0.0
0
LINE
8
Layer 1
62
4
5
14b
100
AcDbEntity
100
AcDbLine
10
79.391198
20
141.423399
30
0.0
11
75.777725
21
140.247171
31
0.0
0
LINE
8
Layer 1
62
4
5
14c
100
AcDbEntity
100
AcDbLine
10
75.777725
20
140.247171
30
0.0
11
73.110875
21
139.059966
31
0.0
0
LINE
8
Layer 1
62
4
5
14d
100
AcDbEntity
100
AcDbLine
10
73.110875
20
139.059966
30
0.0
11
72.316089
21
138.607661
31
0.0
0
LINE
8
Layer 1
62
4
5
14e
100
AcDbEntity
100
AcDbLine
10
72.316089
20
138.607661
30
0.0
11
72.022758
21
138.429419
31
0.0
0
LINE
8
Layer 1
62
4
5
14f
100
AcDbEntity
100
AcDbLine
10
72.022758
20
138.429419
30
0.0
11
72.058355
21
138.443813
31
0.0
0
LINE
8
Layer 1
62
4
5
150
100
AcDbEntity
100
AcDbLine
10
72.058355
20
138.443813
30
0.0
11
80.650038
21
143.446776
31
0.0
0
LINE
8
Layer 1
62
4
5
151
100
AcDbEntity
100
AcDbLine
10
80.650038
20
143.446776
30
0.0
11
83.246567
21
145.074826
31
0.0
0
LINE
8
Layer 1
62
4
5
152
100
AcDbEntity
100
AcDbLine
10
83.246567
20
145.074826
30
0.0
11
83.031144
21
144.956768
31
0.0
0
LINE
8
Layer 1
62
4
5
153
100
AcDbEntity
100
AcDbLine
10
83.031144
20
144.956768
30
0.0
11
82.198327
21
144.395192
31
0.0
0
LINE
8
Layer 1
62
4
5
154
100
AcDbEntity
100
AcDbLine
10
82.198327
20
144.395192
30
0.0
11
79.855703
21
142.475104
31
0.0
0
LINE
8
Layer 1
62
4
5
155
100
AcDbEntity
100
AcDbLine
10
79.855703
20
142.475104
30
0.0
11
79.041318
21
141.338190
31
0.0
0
LINE
8
Layer 1
62
4
5
156
100
AcDbEntity
100
AcDbLine
10
79.041318
20
141.338190
30
0.0
11
78.373627
21
140.124083
31
0.0
0
LINE
8
Layer 1
62
4
5
157
100
AcDbEntity
100
AcDbLine
10
78.373627
20
140.124083
30
0.0
11
77.439861
21
137.508501
31
0.0
0
LINE
8
Layer 1
62
4
5
158
100
AcDbEntity
100
AcDbLine
10
77.439861
20
137.508501
30
0.0
11
77.280472
21
136.353516
31
0.0
0
LINE
8
Layer 1
62
4
5
159
100
AcDbEntity
100
AcDbLine
10
77.280472
20
136.353516
30
0.0
11
77.342106
21
135.214188
31
0.0
0
LINE
8
Layer 1
62
4
5
15a
100
AcDbEntity
100
AcDbLine
10
77.342106
20
135.214188
30
0.0
11
77.594878
21
134.097597
31
0.0
0
LINE
8
Layer 1
62
4
5
15b
100
AcDbEntity
100
AcDbLine
10
77.594878
20
134.097597
30
0.0
11
78.008903
21
133.010821
31
0.0
0
LINE
8
Layer 1
62
4
5
15c
100
AcDbEntity
100
AcDbLine
10
78.008903
20
133.010821
30
0.0
11
79.344383
21
130.682704
31
0.0
0
LINE
8
Layer 1
62
4
5
15d
100
AcDbEntity
100
AcDbLine
10
79.344383
20
130.682704
30
0.0
11
80.965813
21
128.537396
31
0.0
0
LINE
8
Layer 1
62
4
5
15e
100
AcDbEntity
100
AcDbLine
10
80.965813
20
128.537396
30
0.0
11
82.838727
21
125.921121
31
0.0
0
LINE
8
Layer 1
62
4
5
15f
100
AcDbEntity
100
AcDbLine
10
82.838727
20
125.921121
30
0.0
11
84.544428
21
123.198361
31
0.0
0
LINE
8
Layer 1
62
4
5
160
100
AcDbEntity
100
AcDbLine
10
84.544428
20
123.198361
30
0.0
11
87.507168
21
116.771534
31
0.0
0
LINE
8
Layer 1
62
4
5
161
100
AcDbEntity
100
AcDbLine
10
87.507168
20
116.771534
30
0.0
11
88.370903
21
114.191131
31
0.0
0
LINE
8
Layer 1
62
4
5
162
100
AcDbEntity
100
AcDbLine
10
88.370903
20
114.191131
30
0.0
11
89.009824
21
111.544152
31
0.0
0
LINE
8
Layer 1
62
4
5
163
100
AcDbEntity
100
AcDbLine
10
89.009824
20
111.544152
30
0.0
11
89.932806
21
106.172244
31
0.0
0
LINE
8
Layer 1
62
4
5
164
100
AcDbEntity
100
AcDbLine
10
89.932806
20
106.172244
30
0.0
11
90.653265
21
101.437215
31
0.0
0
LINE
8
Layer 1
62
4
5
165
100
AcDbEntity
100
AcDbLine
10
90.653265
20
101.437215
30
0.0
11
91.329990
21
96.697025
31
0.0
0
LINE
8
Layer 1
62
4
5
166
100
AcDbEntity
100
AcDbLine
10
91.329990
20
96.697025
30
0.0
11
91.557410
21
93.070525
31
0.0
0
LINE
8
Layer 1
62
4
5
167
100
AcDbEntity
100
AcDbLine
10
91.557410
20
93.070525
30
0.0
11
91.531099
21
89.438961
31
0.0
0
LINE
8
Layer 1
62
4
5
168
100
AcDbEntity
100
AcDbLine
10
91.531099
20
89.438961
30
0.0
11
91.201553
21
86.518506
31
0.0
0
LINE
8
Layer 1
62
4
5
169
100
AcDbEntity
100
AcDbLine
10
91.201553
20
86.518506
30
0.0
11
90.895618
21
85.092602
31
0.0
0
LINE
8
Layer 1
62
4
5
16a
100
AcDbEntity
100
AcDbLine
10
90.895618
20
85.092602
30
0.0
11
90.423266
21
83.699205
31
0.0
0
LINE
8
Layer 1
62
4
5
16b
100
AcDbEntity
100
AcDbLine
10
90.423266
20
83.699205
30
0.0
11
89.095748
21
81.297423
31
0.0
0
LINE
8
Layer 1
62
4
5
16c
100
AcDbEntity
100
AcDbLine
10
89.095748
20
81.297423
30
0.0
11
87.398947
21
79.141273
31
0.0
0
LINE
8
Layer 1
62
4
5
16d
100
AcDbEntity
100
AcDbLine
10
87.398947
20
79.141273
30
0.0
11
85.113254
21
76.721175
31
0.0
0
LINE
8
Layer 1
62
4
5
16e
100
AcDbEntity
100
AcDbLine
10
85.113254
20
76.721175
30
0.0
11
83.880110
21
75.617435
31
0.0
0
LINE
8
Layer 1
62
4
5
16f
100
AcDbEntity
100
AcDbLine
10
83.880110
20
75.617435
30
0.0
11
82.537227
21
74.630747
31
0.0
0
LINE
8
Layer 1
62
4
5
170
100
AcDbEntity
100
AcDbLine
10
82.537227
20
74.630747
30
0.0
11
78.019143
21
71.782213
31
0.0
0
LINE
8
Layer 1
62
4
5
171
100
AcDbEntity
100
AcDbLine
10
78.019143
20
71.782213
30
0.0
11
73.471834
21
69.276625
31
0.0
0
LINE
8
Layer 1
62
4
5
172
100
AcDbEntity
100
AcDbLine
10
73.471834
20
69.276625
30
0.0
11
68.760493
21
67.222022
31
0.0
0
LINE
8
Layer 1
62
4
5
173
100
AcDbEntity
100
AcDbLine
10
68.760493
20
67.222022
30
0.0
11
66.301183
21
66.397602
31
0.0
0
LINE
8
Layer 1
62
4
5
174
100
AcDbEntity
100
AcDbLine
10
66.301183
20
66.397602
30
0.0
11
63.750311
21
65.726444
31
0.0
0
LINE
8
Layer 1
62
4
5
175
100
AcDbEntity
100
AcDbLine
10
63.750311
20
65.726444
30
0.0
11
61.662771
21
65.367429
31
0.0
0
LINE
8
Layer 1
62
4
5
176
100
AcDbEntity
100
AcDbLine
10
61.662771
20
65.367429
30
0.0
11
59.556644
21
65.167316
31
0.0
0
LINE
8
Layer 1
62
4
5
177
100
AcDbEntity
100
AcDbLine
10
59.556644
20
65.167316
30
0.0
11
55.323449
21
65.029431
31
0.0
0
LINE
8
Layer 1
62
4
5
178
100
AcDbEntity
100
AcDbLine
10
55.323449
20
65.029431
30
0.0
11
51.465091
21
65.006502
31
0.0
0
LINE
8
Layer 1
62
4
5
179
100
AcDbEntity
100
AcDbLine
10
51.465091
20
65.006502
30
0.0
11
49.549871
21
65.132588
31
0.0
0
LINE
8
Layer 1
62
4
5
17a
100
AcDbEntity
100
AcDbLine
10
49.549871
20
65.132588
30
0.0
11
47.643545
21
65.437127
31
0.0
0
LINE
8
Layer 1
62
4
5
17b
100
AcDbEntity
100
AcDbLine
10
47.643545
20
65.437127
30
0.0
11
44.305036
21
66.280852
31
0.0
0
LINE
8
Layer 1
62
4
5
17c
100
AcDbEntity
100
AcDbLine
10
44.305036
20
66.280852
30
0.0
11
41.036816
21
67.370781
31
0.0
0
LINE
8
Layer 1
62
4
5
17d
100
AcDbEntity
100
AcDbLine
10
41.036816
20
67.370781
30
0.0
11
38.043623
21
68.360585
31
0.0
0
LINE
8
Layer 1
62
4
5
17e
100
AcDbEntity
100
AcDbLine
10
38.043623
20
68.360585
30
0.0
11
34.943706
21
68.924939
31
0.0
0
LINE
8
Layer 1
62
4
5
17f
100
AcDbEntity
100
AcDbLine
10
34.943706
20
68.924939
30
0.0
11
31.348277
21
69.075921
31
0.0
0
LINE
8
Layer 1
62
4
5
180
100
AcDbEntity
100
AcDbLine
10
31.348277
20
69.075921
30
0.0
11
27.748485
21
69.086554
31
0.0
0
LINE
8
Layer 1
62
4
5
181
100
AcDbEntity
100
AcDbLine
10
27.748485
20
69.086554
30
0.0
11
25.305147
21
68.831797
31
0.0
0
LINE
8
Layer 1
62
4
5
182
100
AcDbEntity
100
AcDbLine
10
25.305147
20
68.831797
30
0.0
11
24.093580
21
68.612620
31
0.0
0
LINE
8
Layer 1
62
4
5
183
100
AcDbEntity
100
AcDbLine
10
24.093580
20
68.612620
30
0.0
11
22.929366
21
68.232524
31
0.0
0
LINE
8
Layer 1
62
4
5
184
100
AcDbEntity
100
AcDbLine
10
22.929366
20
68.232524
30
0.0
11
21.224292
21
67.220060
31
0.0
0
LINE
8
Layer 1
62
4
5
185
100
AcDbEntity
100
AcDbLine
10
21.224292
20
67.220060
30
0.0
11
27.304022
21
70.532350
31
0.0
0
LINE
8
Layer 1
62
4
5
186
100
AcDbEntity
100
AcDbLine
10
27.304022
20
70.532350
30
0.0
11
31.055272
21
72.699386
31
0.0
0
LINE
8
Layer 1
62
4
5
187
100
AcDbEntity
100
AcDbLine
10
31.055272
20
72.699386
30
0.0
11
32.911855
21
73.886999
31
0.0
0
LINE
8
Layer 1
62
4
5
188
100
AcDbEntity
100
AcDbLine
10
32.911855
20
73.886999
30
0.0
11
33.307583
21
74.261022
31
0.0
0
LINE
8
Layer 1
62
4
5
189
100
AcDbEntity
100
AcDbLine
10
33.307583
20
74.261022
30
0.0
11
32.676271
21
73.987288
31
0.0
0
LINE
8
Layer 1
62
4
5
18a
100
AcDbEntity
100
AcDbLine
10
32.676271
20
73.987288
30
0.0
11
31.451730
21
73.231628
31
0.0
0
LINE
8
Layer 1
62
4
5
18b
100
AcDbEntity
100
AcDbLine
10
31.451730
20
73.231628
30
0.0
11
30.067775
21
72.159876
31
0.0
0
LINE
8
Layer 1
62
4
5
18c
100
AcDbEntity
100
AcDbLine
10
30.067775
20
72.159876
30
0.0
11
28.958218
21
70.937864
31
0.0
0
LINE
8
Layer 1
62
4
5
18d
100
AcDbEntity
100
AcDbLine
10
28.958218
20
70.937864
30
0.0
11
28.332509
21
69.598273
31
0.0
0
LINE
8
Layer 1
62
4
5
18e
100
AcDbEntity
100
AcDbLine
10
28.332509
20
69.598273
30
0.0
11
28.068396
21
68.342661
31
0.0
0
LINE
8
Layer 1
62
4
5
18f
100
AcDbEntity
100
AcDbLine
10
28.068396
20
68.342661
30
0.0
11
27.936471
21
67.066821
31
0.0
0
LINE
8
Layer 1
62
4
5
190
100
AcDbEntity
100
AcDbLine
10
27.936471
20
67.066821
30
0.0
11
27.873291
21
64.498413
31
0.0
0
LINE
8
Layer 1
62
4
5
191
100
AcDbEntity
100
AcDbLine
10
27.873291
20
64.498413
30
0.0
11
27.851652
21
63.150246
31
0.0
0
LINE
8
Layer 1
62
4
5
192
100
AcDbEntity
100
AcDbLine
10
27.851652
20
63.150246
30
0.0
11
27.978120
21
61.913237
31
0.0
0
LINE
8
Layer 1
62
4
5
193
100
AcDbEntity
100
AcDbLine
10
27.978120
20
61.913237
30
0.0
11
28.618849
21
59.666964
31
0.0
0
LINE
8
Layer 1
62
4
5
194
100
AcDbEntity
100
AcDbLine
10
28.618849
20
59.666964
30
0.0
11
29.682418
21
57.548141
31
0.0
0
LINE
8
Layer 1
62
4
5
195
100
AcDbEntity
100
AcDbLine
10
29.682418
20
57.548141
30
0.0
11
31.055767
21
55.345317
31
0.0
0
LINE
8
Layer 1
62
4
5
196
100
AcDbEntity
100
AcDbLine
10
31.055767
20
55.345317
30
0.0
11
32.940317
21
52.906175
31
0.0
0
LINE
8
Layer 1
62
4
5
197
100
AcDbEntity
100
AcDbLine
10
32.940317
20
52.906175
30
0.0
11
34.972285
21
50.592187
31
0.0
0
LINE
8
Layer 1
62
4
5
198
100
AcDbEntity
100
AcDbLine
10
34.972285
20
50.592187
30
0.0
11
37.132412
21
48.396394
31
0.0
0
LINE
8
Layer 1
62
4
5
199
100
AcDbEntity
100
AcDbLine
10
37.132412
20
48.396394
30
0.0
11
39.401437
21
46.311841
31
0.0
0
LINE
8
Layer 1
62
4
5
19a
100
AcDbEntity
100
AcDbLine
10
39.401437
20
46.311841
30
0.0
11
40.518084
21
45.293790
31
0.0
0
LINE
8
Layer 1
62
4
5
19b
100
AcDbEntity
100
AcDbLine
10
40.518084
20
45.293790
30
0.0
11
41.478710
21
44.183795
31
0.0
0
LINE
8
Layer 1
62
4
5
19c
100
AcDbEntity
100
AcDbLine
10
41.478710
20
44.183795
30
0.0
11
42.264888
21
42.953249
31
0.0
0
LINE
8
Layer 1
62
4
5
19d
100
AcDbEntity
100
AcDbLine
10
42.264888
20
42.953249
30
0.0
11
42.858190
21
41.573544
31
0.0
0
LINE
8
Layer 1
62
4
5
19e
100
AcDbEntity
100
AcDbLine
10
42.858190
20
41.573544
30
0.0
11
43.118340
21
40.296250
31
0.0
0
LINE
8
Layer 1
62
4
5
19f
100
AcDbEntity
100
AcDbLine
10
43.118340
20
40.296250
30
0.0
11
43.223662
21
39.009260
31
0.0
0
LINE
8
Layer 1
62
4
5
1a0
100
AcDbEntity
100
AcDbLine
10
43.223662
20
39.009260
30
0.0
11
43.076137
21
36.421900
31
0.0
0
LINE
8
Layer 1
62
4
5
1a1
100
AcDbEntity
100
AcDbLine
10
43.076137
20
36.421900
30
0.0
11
42.731032
21
34.531990
31
0.0
0
LINE
8
Layer 1
62
4
5
1a2
100
AcDbEntity
100
AcDbLine
10
42.731032
20
34.531990
30
0.0
11
42.184549
21
32.692198
31
0.0
0
LINE
8
Layer 1
62
4
5
1a3
100
AcDbEntity
100
AcDbLine
10
42.184549
20
32.692198
30
0.0
11
40.786233
21
29.110129
31
0.0
0
LINE
8
Layer 1
62
4
5
1a4
100
AcDbEntity
100
AcDbLine
10
40.786233
20
29.110129
30
0.0
11
39.035700
21
25.518670
31
0.0
0
LINE
8
Layer 1
62
4
5
1a5
100
AcDbEntity
100
AcDbLine
10
39.035700
20
25.518670
30
0.0
11
37.991543
21
23.824290
31
0.0
0
LINE
8
Layer 1
62
4
5
1a6
100
AcDbEntity
100
AcDbLine
10
37.991543
20
23.824290
30
0.0
11
36.799503
21
22.218510
31
0.0
0
LINE
8
Layer 1
62
4
5
1a7
100
AcDbEntity
100
AcDbLine
10
36.799503
20
22.218510
30
0.0
11
34.304858
21
19.792340
31
0.0
0
LINE
8
Layer 1
62
4
5
1a8
100
AcDbEntity
100
AcDbLine
10
34.304858
20
19.792340
30
0.0
11
31.727651
21
17.452561
31
0.0
0
LINE
8
Layer 1
62
4
5
1a9
100
AcDbEntity
100
AcDbLine
10
31.727651
20
17.452561
30
0.0
11
28.791582
21
14.997126
31
0.0
0
LINE
8
Layer 1
62
4
5
1aa
100
AcDbEntity
100
AcDbLine
10
28.791582
20
14.997126
30
0.0
11
25.583802
21
12.874453
31
0.0
0
LINE
8
Layer 1
62
4
5
1ab
100
AcDbEntity
100
AcDbLine
10
25.583802
20
12.874453
30
0.0
11
22.186151
21
11.055875
31
0.0
0
LINE
8
Layer 1
62
4
5
1ac
100
AcDbEntity
100
AcDbLine
10
22.186151
20
11.055875
30
0.0
11
18.680465
21
9.512725
31
0.0
0
LINE
8
Layer 1
62
4
5
1ad
100
AcDbEntity
100
AcDbLine
10
18.680465
20
9.512725
30
0.0
11
17.778659
21
9.179184
31
0.0
0
LINE
8
Layer 1
62
4
5
1ae
100
AcDbEntity
100
AcDbLine
10
17.778659
20
9.179184
30
0.0
11
17.726221
21
9.182445
31
0.0
0
LINE
8
Layer 1
62
4
5
1af
100
AcDbEntity
100
AcDbLine
10
17.726221
20
9.182445
30
0.0
11
17.791797
21
9.230728
31
0.0
0
LINE
8
Layer 1
62
4
5
1b0
100
AcDbEntity
100
AcDbLine
10
17.791797
20
9.230728
30
0.0
11
17.834111
21
9.257359
31
0.0
0
LINE
8
Layer 1
62
4
5
1b1
100
AcDbEntity
100
AcDbLine
10
17.834111
20
9.257359
30
0.0
11
17.019832
21
8.849079
31
0.0
0
LINE
8
Layer 1
62
4
5
1b2
100
AcDbEntity
100
AcDbLine
10
17.019832
20
8.849079
30
0.0
11
16.232782
21
8.522379
31
0.0
0
LINE
8
Layer 1
62
4
5
1b3
100
AcDbEntity
100
AcDbLine
10
16.232782
20
8.522379
30
0.0
11
14.929906
21
7.786198
31
0.0
0
LINE
8
Layer 1
62
4
5
1b4
100
AcDbEntity
100
AcDbLine
10
14.929906
20
7.786198
30
0.0
11
14.446322
21
7.501001
31
0.0
0
LINE
8
Layer 1
62
4
5
1b5
100
AcDbEntity
100
AcDbLine
10
14.446322
20
7.501001
30
0.0
11
14.386811
21
7.463635
31
0.0
0
LINE
8
Layer 1
62
4
5
1b6
100
AcDbEntity
100
AcDbLine
10
14.386811
20
7.463635
30
0.0
11
14.502275
21
7.528618
31
0.0
0
LINE
8
Layer 1
62
4
5
1b7
100
AcDbEntity
100
AcDbLine
10
14.502275
20
7.528618
30
0.0
11
25.662897
21
13.941904
31
0.0
0
LINE
8
Layer 1
62
4
5
1b8
100
AcDbEntity
100
AcDbLine
10
25.662897
20
13.941904
30
0.0
11
25.475451
21
13.814017
31
0.0
0
LINE
8
Layer 1
62
4
5
1b9
100
AcDbEntity
100
AcDbLine
10
25.475451
20
13.814017
30
0.0
11
24.630480
21
13.289056
31
0.0
0
LINE
8
Layer 1
62
4
5
1ba
100
AcDbEntity
100
AcDbLine
10
24.630480
20
13.289056
30
0.0
11
22.034993
21
11.638733
31
0.0
0
LINE
8
Layer 1
62
4
5
1bb
100
AcDbEntity
100
AcDbLine
10
22.034993
20
11.638733
30
0.0
11
16.050634
21
8.091488
31
0.0
0
LINE
8
Layer 1
62
4
5
1bc
100
AcDbEntity
100
AcDbLine
10
16.050634
20
8.091488
30
0.0
11
13.615236
21
6.499068
31
0.0
0
LINE
8
Layer 1
62
4
5
1bd
100
AcDbEntity
100
AcDbLine
10
13.615236
20
6.499068
30
0.0
11
12.388723
21
5.816914
31
0.0
0
LINE
8
Layer 1
62
4
5
1be
100
AcDbEntity
100
AcDbLine
10
12.388723
20
5.816914
30
0.0
11
10.031022
21
5.000471
31
0.0
0
LINE
8
Layer 1
62
4
5
1bf
100
AcDbEntity
100
AcDbLine
10
10.031022
20
5.000471
30
0.0
11
19.445540
21
12.398786
31
0.0
0
LINE
8
Layer 1
62
4
5
1c0
100
AcDbEntity
100
AcDbLine
10
19.445540
20
12.398786
30
0.0
11
19.445540
21
12.398786
31
0.0
0
LINE
8
Layer 1
62
4
5
1c1
100
AcDbEntity
100
AcDbLine
10
19.445540
20
12.398786
30
0.0
11
21.189216
21
13.198286
31
0.0
0
LINE
8
Layer 1
62
4
5
1c2
100
AcDbEntity
100
AcDbLine
10
21.189216
20
13.198286
30
0.0
11
21.075546
21
13.108618
31
0.0
0
LINE
8
Layer 1
62
4
5
1c3
100
AcDbEntity
100
AcDbLine
10
21.075546
20
13.108618
30
0.0
11
20.312614
21
12.677854
31
0.0
0
LINE
8
Layer 1
62
4
5
1c4
100
AcDbEntity
100
AcDbLine
10
20.312614
20
12.677854
30
0.0
11
10.884414
21
7.321551
31
0.0
0
LINE
8
Layer 1
62
4
5
1c5
100
AcDbEntity
100
AcDbLine
10
10.884414
20
7.321551
30
0.0
11
18.532369
21
12.012270
31
0.0
0
LINE
8
Layer 1
62
4
5
1c6
100
AcDbEntity
100
AcDbLine
10
18.532369
20
12.012270
30
0.0
11
22.398471
21
14.285174
31
0.0
0
LINE
8
Layer 1
62
4
5
1c7
100
AcDbEntity
100
AcDbLine
10
22.398471
20
14.285174
30
0.0
11
26.402898
21
16.295668
31
0.0
0
LINE
8
Layer 1
62
4
5
1c8
100
AcDbEntity
100
AcDbLine
10
26.402898
20
16.295668
30
0.0
11
28.027208
21
17.016534
31
0.0
0
LINE
8
Layer 1
62
4
5
1c9
100
AcDbEntity
100
AcDbLine
10
28.027208
20
17.016534
30
0.0
11
28.568004
21
17.310429
31
0.0
0
LINE
8
Layer 1
62
4
5
1ca
100
AcDbEntity
100
AcDbLine
10
28.568004
20
17.310429
30
0.0
11
28.769972
21
17.422288
31
0.0
0
LINE
8
Layer 1
62
4
5
1cb
100
AcDbEntity
100
AcDbLine
10
28.769972
20
17.422288
30
0.0
11
28.748987
21
17.407361
31
0.0
0
LINE
8
Layer 1
62
4
5
1cc
100
AcDbEntity
100
AcDbLine
10
28.748987
20
17.407361
30
0.0
11
17.017546
21
10.341242
31
0.0
0
LINE
8
Layer 1
62
4
5
1cd
100
AcDbEntity
100
AcDbLine
10
17.017546
20
10.341242
30
0.0
11
17.260880
21
10.482172
31
0.0
0
LINE
8
Layer 1
62
4
5
1ce
100
AcDbEntity
100
AcDbLine
10
17.260880
20
10.482172
30
0.0
11
18.156817
21
11.062447
31
0.0
0
LINE
8
Layer 1
62
4
5
1cf
100
AcDbEntity
100
AcDbLine
10
18.156817
20
11.062447
30
0.0
11
20.670742
21
12.893747
31
0.0
0
LINE
8
Layer 1
62
4
5
1d0
100
AcDbEntity
100
AcDbLine
10
20.670742
20
12.893747
30
0.0
11
23.216807
21
15.257324
31
0.0
0
LINE
8
Layer 1
62
4
5
1d1
100
AcDbEntity
100
AcDbLine
10
23.216807
20
15.257324
30
0.0
11
25.805604
21
17.577580
31
0.0
0
LINE
8
Layer 1
62
4
5
1d2
100
AcDbEntity
100
AcDbLine
10
25.805604
20
17.577580
30
0.0
11
27.070398
21
19.077915
31
0.0
0
LINE
8
Layer 1
62
4
5
1d3
100
AcDbEntity
100
AcDbLine
10
27.070398
20
19.077915
30
0.0
11
28.175566
21
20.677158
31
0.0
0
LINE
8
Layer 1
62
4
5
1d4
100
AcDbEntity
100
AcDbLine
10
28.175566
20
20.677158
30
0.0
11
29.993675
21
24.142103
31
0.0
0
LINE
8
Layer 1
62
4
5
1d5
100
AcDbEntity
100
AcDbLine
10
29.993675
20
24.142103
30
0.0
11
31.384807
21
27.571765
31
0.0
0
LINE
8
Layer 1
62
4
5
1d6
100
AcDbEntity
100
AcDbLine
10
31.384807
20
27.571765
30
0.0
11
31.943910
21
29.335853
31
0.0
0
LINE
8
Layer 1
62
4
5
1d7
100
AcDbEntity
100
AcDbLine
10
31.943910
20
29.335853
30
0.0
11
32.334945
21
31.138335
31
0.0
0
LINE
8
Layer 1
62
4
5
1d8
100
AcDbEntity
100
AcDbLine
10
32.334945
20
31.138335
30
0.0
11
32.566518
21
33.473039
31
0.0
0
LINE
8
Layer 1
62
4
5
1d9
100
AcDbEntity
100
AcDbLine
10
32.566518
20
33.473039
30
0.0
11
32.529165
21
34.639131
31
0.0
0
LINE
8
Layer 1
62
4
5
1da
100
AcDbEntity
100
AcDbLine
10
32.529165
20
34.639131
30
0.0
11
32.342424
21
35.807897
31
0.0
0
LINE
8
Layer 1
62
4
5
1db
100
AcDbEntity
100
AcDbLine
10
32.342424
20
35.807897
30
0.0
11
31.842245
21
37.048941
31
0.0
0
LINE
8
Layer 1
62
4
5
1dc
100
AcDbEntity
100
AcDbLine
10
31.842245
20
37.048941
30
0.0
11
31.133621
21
38.137799
31
0.0
0
LINE
8
Layer 1
62
4
5
1dd
100
AcDbEntity
100
AcDbLine
10
31.133621
20
38.137799
30
0.0
11
29.282319
21
40.044425
31
0.0
0
LINE
8
Layer 1
62
4
5
1de
100
AcDbEntity
100
AcDbLine
10
29.282319
20
40.044425
30
0.0
11
24.863492
21
44.523539
31
0.0
0
LINE
8
Layer 1
62
4
5
1df
100
AcDbEntity
100
AcDbLine
10
24.863492
20
44.523539
30
0.0
11
22.814098
21
46.909350
31
0.0
0
LINE
8
Layer 1
62
4
5
1e0
100
AcDbEntity
100
AcDbLine
10
22.814098
20
46.909350
30
0.0
11
20.905403
21
49.412648
31
0.0
0
LINE
8
Layer 1
62
4
5
1e1
100
AcDbEntity
100
AcDbLine
10
20.905403
20
49.412648
30
0.0
11
19.433857
21
51.688196
31
0.0
0
LINE
8
Layer 1
62
4
5
1e2
100
AcDbEntity
100
AcDbLine
10
19.433857
20
51.688196
30
0.0
11
18.204826
21
53.958306
31
0.0
0
LINE
8
Layer 1
62
4
5
1e3
100
AcDbEntity
100
AcDbLine
10
18.204826
20
53.958306
30
0.0
11
17.739610
21
55.137720
31
0.0
0
LINE
8
Layer 1
62
4
5
1e4
100
AcDbEntity
100
AcDbLine
10
17.739610
20
55.137720
30
0.0
11
17.405051
21
56.371452
31
0.0
0
LINE
8
Layer 1
62
4
5
1e5
100
AcDbEntity
100
AcDbLine
10
17.405051
20
56.371452
30
0.0
11
17.224489
21
57.678061
31
0.0
0
LINE
8
Layer 1
62
4
5
1e6
100
AcDbEntity
100
AcDbLine
10
17.224489
20
57.678061
30
0.0
11
17.221267
21
59.076106
31
0.0
0
LINE
8
Layer 1
62
4
5
1e7
100
AcDbEntity
100
AcDbLine
10
17.221267
20
59.076106
30
0.0
11
17.230116
21
61.783217
31
0.0
0
LINE
8
Layer 1
62
4
5
1e8
100
AcDbEntity
100
AcDbLine
10
17.230116
20
61.783217
30
0.0
11
17.492482
21
64.474184
31
0.0
0
LINE
8
Layer 1
62
4
5
1e9
100
AcDbEntity
100
AcDbLine
10
17.492482
20
64.474184
30
0.0
11
18.260662
21
66.506905
31
0.0
0
LINE
8
Layer 1
62
4
5
1ea
100
AcDbEntity
100
AcDbLine
10
18.260662
20
66.506905
30
0.0
11
19.426334
21
68.168909
31
0.0
0
LINE
8
Layer 1
62
4
5
1eb
100
AcDbEntity
100
AcDbLine
10
19.426334
20
68.168909
30
0.0
11
20.914115
21
69.538143
31
0.0
0
LINE
8
Layer 1
62
4
5
1ec
100
AcDbEntity
100
AcDbLine
10
20.914115
20
69.538143
30
0.0
11
22.648621
21
70.692550
31
0.0
0
LINE
8
Layer 1
62
4
5
1ed
100
AcDbEntity
100
AcDbLine
10
22.648621
20
70.692550
30
0.0
11
26.556272
21
72.668669
31
0.0
0
LINE
8
Layer 1
62
4
5
1ee
100
AcDbEntity
100
AcDbLine
10
26.556272
20
72.668669
30
0.0
11
30.546215
21
74.720827
31
0.0
0
LINE
8
Layer 1
62
4
5
1ef
100
AcDbEntity
100
AcDbLine
10
30.546215
20
74.720827
30
0.0
11
32.185543
21
75.376270
31
0.0
0
LINE
8
Layer 1
62
4
5
1f0
100
AcDbEntity
100
AcDbLine
10
32.185543
20
75.376270
30
0.0
11
33.881183
21
75.792133
31
0.0
0
LINE
8
Layer 1
62
4
5
1f1
100
AcDbEntity
100
AcDbLine
10
33.881183
20
75.792133
30
0.0
11
35.620540
21
76.014394
31
0.0
0
LINE
8
Layer 1
62
4
5
1f2
100
AcDbEntity
100
AcDbLine
10
35.620540
20
76.014394
30
0.0
11
37.391021
21
76.089032
31
0.0
0
LINE
8
Layer 1
62
4
5
1f3
100
AcDbEntity
100
AcDbLine
10
37.391021
20
76.089032
30
0.0
11
41.065875
21
76.067339
31
0.0
0
LINE
8
Layer 1
62
4
5
1f4
100
AcDbEntity
100
AcDbLine
10
41.065875
20
76.067339
30
0.0
11
44.729180
21
75.822374
31
0.0
0
LINE
8
Layer 1
62
4
5
1f5
100
AcDbEntity
100
AcDbLine
10
44.729180
20
75.822374
30
0.0
11
47.870550
21
75.103446
31
0.0
0
LINE
8
Layer 1
62
4
5
1f6
100
AcDbEntity
100
AcDbLine
10
47.870550
20
75.103446
30
0.0
11
50.928188
21
74.077261
31
0.0
0
LINE
8
Layer 1
62
4
5
1f7
100
AcDbEntity
100
AcDbLine
10
50.928188
20
74.077261
30
0.0
11
54.136308
21
73.042843
31
0.0
0
LINE
8
Layer 1
62
4
5
1f8
100
AcDbEntity
100
AcDbLine
10
54.136308
20
73.042843
30
0.0
11
57.416130
21
72.269444
31
0.0
0
LINE
8
Layer 1
62
4
5
1f9
100
AcDbEntity
100
AcDbLine
10
57.416130
20
72.269444
30
0.0
11
61.171212
21
72.014745
31
0.0
0
LINE
8
Layer 1
62
4
5
1fa
100
AcDbEntity
100
AcDbLine
10
61.171212
20
72.014745
30
0.0
11
64.941715
21
72.050787
31
0.0
0
LINE
8
Layer 1
62
4
5
1fb
100
AcDbEntity
100
AcDbLine
10
64.941715
20
72.050787
30
0.0
11
69.097501
21
72.269587
31
0.0
0
LINE
8
Layer 1
62
4
5
1fc
100
AcDbEntity
100
AcDbLine
10
69.097501
20
72.269587
30
0.0
11
71.159675
21
72.527534
31
0.0
0
LINE
8
Layer 1
62
4
5
1fd
100
AcDbEntity
100
AcDbLine
10
71.159675
20
72.527534
30
0.0
11
73.199204
21
72.950224
31
0.0
0
LINE
8
Layer 1
62
4
5
1fe
100
AcDbEntity
100
AcDbLine
10
73.199204
20
72.950224
30
0.0
11
77.535066
21
74.339694
31
0.0
0
LINE
8
Layer 1
62
4
5
1ff
100
AcDbEntity
100
AcDbLine
10
77.535066
20
74.339694
30
0.0
11
80.600859
21
75.668578
31
0.0
0
LINE
8
Layer 1
62
4
5
200
100
AcDbEntity
100
AcDbLine
10
80.600859
20
75.668578
30
0.0
11
82.207316
21
76.425857
31
0.0
0
LINE
8
Layer 1
62
4
5
201
100
AcDbEntity
100
AcDbLine
10
82.207316
20
76.425857
30
0.0
11
71.383195
21
70.311384
31
0.0
0
LINE
8
Layer 1
62
4
5
202
100
AcDbEntity
100
AcDbLine
10
71.383195
20
70.311384
30
0.0
11
73.134976
21
71.327502
31
0.0
0
LINE
8
Layer 1
62
4
5
203
100
AcDbEntity
100
AcDbLine
10
73.134976
20
71.327502
30
0.0
11
74.023389
21
72.035079
31
0.0
0
LINE
8
Layer 1
62
4
5
204
100
AcDbEntity
100
AcDbLine
10
74.023389
20
72.035079
30
0.0
11
74.826605
21
72.847652
31
0.0
0
LINE
8
Layer 1
62
4
5
205
100
AcDbEntity
100
AcDbLine
10
74.826605
20
72.847652
30
0.0
11
76.360553
21
74.539736
31
0.0
0
LINE
8
Layer 1
62
4
5
206
100
AcDbEntity
100
AcDbLine
10
76.360553
20
74.539736
30
0.0
11
78.118075
21
76.492020
31
0.0
0
LINE
8
Layer 1
62
4
5
207
100
AcDbEntity
100
AcDbLine
10
78.118075
20
76.492020
30
0.0
11
79.523215
21
78.707289
31
0.0
0
LINE
8
Layer 1
62
4
5
208
100
AcDbEntity
100
AcDbLine
10
79.523215
20
78.707289
30
0.0
11
80.209209
21
80.110419
31
0.0
0
LINE
8
Layer 1
62
4
5
209
100
AcDbEntity
100
AcDbLine
10
80.209209
20
80.110419
30
0.0
11
80.478456
21
81.081896
31
0.0
0
LINE
8
Layer 1
62
4
5
20a
100
AcDbEntity
100
AcDbLine
10
80.478456
20
81.081896
30
0.0
11
80.611024
21
82.087729
31
0.0
0
LINE
8
Layer 1
62
4
5
20b
100
AcDbEntity
100
AcDbLine
10
80.611024
20
82.087729
30
0.0
11
80.854386
21
84.100288
31
0.0
0
LINE
8
Layer 1
62
4
5
20c
100
AcDbEntity
100
AcDbLine
10
80.854386
20
84.100288
30
0.0
11
80.944668
21
87.639696
31
0.0
0
LINE
8
Layer 1
62
4
5
20d
100
AcDbEntity
100
AcDbLine
10
80.944668
20
87.639696
30
0.0
11
80.764843
21
91.181511
31
0.0
0
LINE
8
Layer 1
62
4
5
20e
100
AcDbEntity
100
AcDbLine
10
80.764843
20
91.181511
30
0.0
11
80.155198
21
95.918566
31
0.0
0
LINE
8
Layer 1
62
4
5
20f
100
AcDbEntity
100
AcDbLine
10
80.155198
20
95.918566
30
0.0
11
79.491185
21
100.648898
31
0.0
0
LINE
8
Layer 1
62
4
5
210
100
AcDbEntity
100
AcDbLine
10
79.491185
20
100.648898
30
0.0
11
78.589279
21
105.855790
31
0.0
0
LINE
8
Layer 1
62
4
5
211
100
AcDbEntity
100
AcDbLine
10
78.589279
20
105.855790
30
0.0
11
77.951723
21
108.417545
31
0.0
0
LINE
8
Layer 1
62
4
5
212
100
AcDbEntity
100
AcDbLine
10
77.951723
20
108.417545
30
0.0
11
77.100808
21
110.916893
31
0.0
0
LINE
8
Layer 1
62
4
5
213
100
AcDbEntity
100
AcDbLine
10
77.100808
20
110.916893
30
0.0
11
74.170326
21
117.254924
31
0.0
0
LINE
8
Layer 1
62
4
5
214
100
AcDbEntity
100
AcDbLine
10
74.170326
20
117.254924
30
0.0
11
72.515905
21
119.886483
31
0.0
0
LINE
8
Layer 1
62
4
5
215
100
AcDbEntity
100
AcDbLine
10
72.515905
20
119.886483
30
0.0
11
70.705751
21
122.418807
31
0.0
0
LINE
8
Layer 1
62
4
5
216
100
AcDbEntity
100
AcDbLine
10
70.705751
20
122.418807
30
0.0
11
68.982504
21
124.667012
31
0.0
0
LINE
8
Layer 1
62
4
5
217
100
AcDbEntity
100
AcDbLine
10
68.982504
20
124.667012
30
0.0
11
68.213098
21
125.850669
31
0.0
0
LINE
8
Layer 1
62
4
5
218
100
AcDbEntity
100
AcDbLine
10
68.213098
20
125.850669
30
0.0
11
67.567934
21
127.113751
31
0.0
0
LINE
8
Layer 1
62
4
5
219
100
AcDbEntity
100
AcDbLine
10
67.567934
20
127.113751
30
0.0
11
67.067774
21
128.355815
31
0.0
0
LINE
8
Layer 1
62
4
5
21a
100
AcDbEntity
100
AcDbLine
10
67.067774
20
128.355815
30
0.0
11
66.717355
21
129.643818
31
0.0
0
LINE
8
Layer 1
62
4
5
21b
100
AcDbEntity
100
AcDbLine
10
66.717355
20
129.643818
30
0.0
11
66.563239
21
130.963561
31
0.0
0
LINE
8
Layer 1
62
4
5
21c
100
AcDbEntity
100
AcDbLine
10
66.563239
20
130.963561
30
0.0
11
66.651990
21
132.300843
31
0.0
0
LINE
8
Layer 1
62
4
5
21d
100
AcDbEntity
100
AcDbLine
10
66.651990
20
132.300843
30
0.0
11
67.474956
21
135.162112
31
0.0
0
LINE
8
Layer 1
62
4
5
21e
100
AcDbEntity
100
AcDbLine
10
67.474956
20
135.162112
30
0.0
11
68.843878
21
137.812036
31
0.0
0
LINE
8
Layer 1
62
4
5
21f
100
AcDbEntity
100
AcDbLine
10
68.843878
20
137.812036
30
0.0
11
70.392723
21
139.617917
31
0.0
0
LINE
8
Layer 1
62
4
5
220
100
AcDbEntity
100
AcDbLine
10
70.392723
20
139.617917
30
0.0
11
72.176176
21
141.173304
31
0.0
0
LINE
8
Layer 1
62
4
5
221
100
AcDbEntity
100
AcDbLine
10
72.176176
20
141.173304
30
0.0
11
74.147044
21
142.519236
31
0.0
0
LINE
8
Layer 1
62
4
5
222
100
AcDbEntity
100
AcDbLine
10
74.147044
20
142.519236
30
0.0
11
76.258134
21
143.696754
31
0.0
0
LINE
8
Layer 1
62
4
5
223
100
AcDbEntity
100
AcDbLine
10
76.258134
20
143.696754
30
0.0
11
80.712206
21
145.710708
31
0.0
0
LINE
8
Layer 1
62
4
5
224
100
AcDbEntity
100
AcDbLine
10
80.712206
20
145.710708
30
0.0
11
85.160846
21
147.543487
31
0.0
0
LINE
8
Layer 1
62
4
5
225
100
AcDbEntity
100
AcDbLine
10
85.160846
20
147.543487
30
0.0
11
89.014662
21
148.673292
31
0.0
0
LINE
8
Layer 1
62
4
5
226
100
AcDbEntity
100
AcDbLine
10
89.014662
20
148.673292
30
0.0
11
90.991336
21
148.956452
31
0.0
0
LINE
8
Layer 1
62
4
5
227
100
AcDbEntity
100
AcDbLine
10
90.991336
20
148.956452
30
0.0
11
92.977962
21
148.838343
31
0.0
0
LINE
8
Layer 1
62
4
5
228
100
AcDbEntity
100
AcDbLine
10
92.977962
20
148.838343
30
0.0
11
95.389601
21
147.907578
31
0.0
0
LINE
8
Layer 1
62
4
5
229
100
AcDbEntity
100
AcDbLine
10
95.389601
20
147.907578
30
0.0
11
97.784878
21
146.930156
31
0.0
0
LINE
8
Layer 1
62
4
5
22a
100
AcDbEntity
100
AcDbLine
10
97.784878
20
146.930156
30
0.0
11
103.326957
21
145.149721
31
0.0
0
LINE
8
Layer 1
62
4
5
22b
100
AcDbEntity
100
AcDbLine
10
103.326957
20
145.149721
30
0.0
11
107.481092
21
144.235527
31
0.0
0
LINE
8
Layer 1
62
4
5
22c
100
AcDbEntity
100
AcDbLine
10
107.481092
20
144.235527
30
0.0
11
111.691412
21
143.622614
31
0.0
0
LINE
8
Layer 1
62
4
5
22d
100
AcDbEntity
100
AcDbLine
10
111.691412
20
143.622614
30
0.0
11
117.197079
21
143.061083
31
0.0
0
LINE
8
Layer 1
62
4
5
22e
100
AcDbEntity
100
AcDbLine
10
117.197079
20
143.061083
30
0.0
11
122.731095
21
142.986366
31
0.0
0
LINE
8
Layer 1
62
4
5
22f
100
AcDbEntity
100
AcDbLine
10
122.731095
20
142.986366
30
0.0
11
126.162615
21
143.088378
31
0.0
0
LINE
8
Layer 1
62
4
5
230
100
AcDbEntity
100
AcDbLine
10
126.162615
20
143.088378
30
0.0
11
129.570522
21
143.478065
31
0.0
0
LINE
8
Layer 1
62
4
5
231
100
AcDbEntity
100
AcDbLine
10
129.570522
20
143.478065
30
0.0
11
132.313082
21
144.405736
31
0.0
0
LINE
8
Layer 1
62
4
5
232
100
AcDbEntity
100
AcDbLine
10
132.313082
20
144.405736
30
0.0
11
134.953138
21
145.606021
31
0.0
0
LINE
8
Layer 1
62
4
5
233
100
AcDbEntity
100
AcDbLine
10
134.953138
20
145.606021
30
0.0
11
136.680201
21
146.423026
31
0.0
0
LINE
8
Layer 1
62
4
5
234
100
AcDbEntity
100
AcDbLine
10
136.680201
20
146.423026
30
0.0
11
136.545416
21
146.325583
31
0.0
0
LINE
8
Layer 1
62
4
5
235
100
AcDbEntity
100
AcDbLine
10
136.545416
20
146.325583
30
0.0
11
135.758818
21
145.881021
31
0.0
0
LINE
8
Layer 1
62
4
5
236
100
AcDbEntity
100
AcDbLine
10
135.758818
20
145.881021
30
0.0
11
126.300286
21
140.484235
31
0.0
0
LINE
8
Layer 1
62
4
5
237
100
AcDbEntity
100
AcDbLine
10
126.300286
20
140.484235
30
0.0
11
125.981366
21
140.309556
31
0.0
0
LINE
8
Layer 1
62
4
5
238
100
AcDbEntity
100
AcDbLine
10
125.981366
20
140.309556
30
0.0
11
126.556825
21
140.682842
31
0.0
0
LINE
8
Layer 1
62
4
5
239
100
AcDbEntity
100
AcDbLine
10
126.556825
20
140.682842
30
0.0
11
128.135160
21
141.773197
31
0.0
0
LINE
8
Layer 1
62
4
5
23a
100
AcDbEntity
100
AcDbLine
10
128.135160
20
141.773197
30
0.0
11
128.656913
21
142.236002
31
0.0
0
LINE
8
Layer 1
62
4
5
23b
100
AcDbEntity
100
AcDbLine
10
128.656913
20
142.236002
30
0.0
11
129.748647
21
143.167326
31
0.0
0
LINE
8
Layer 1
62
4
5
23c
100
AcDbEntity
100
AcDbLine
10
129.748647
20
143.167326
30
0.0
11
130.627915
21
144.305136
31
0.0
0
LINE
8
Layer 1
62
4
5
23d
100
AcDbEntity
100
AcDbLine
10
130.627915
20
144.305136
30
0.0
11
131.956528
21
146.872964
31
0.0
0
LINE
8
Layer 1
62
4
5
23e
100
AcDbEntity
100
AcDbLine
10
131.956528
20
146.872964
30
0.0
11
133.356823
21
150.526012
31
0.0
0
LINE
8
Layer 1
62
4
5
23f
100
AcDbEntity
100
AcDbLine
10
133.356823
20
150.526012
30
0.0
11
134.333626
21
154.317320
31
0.0
0
LINE
8
Layer 1
62
4
5
240
100
AcDbEntity
100
AcDbLine
10
134.333626
20
154.317320
30
0.0
11
134.879125
21
156.605420
31
0.0
0
LINE
8
Layer 1
62
4
5
241
100
AcDbEntity
100
AcDbLine
10
134.879125
20
156.605420
30
0.0
11
135.005915
21
159.054541
31
0.0
0
LINE
8
Layer 1
62
4
5
242
100
AcDbEntity
100
AcDbLine
10
135.005915
20
159.054541
30
0.0
11
134.991938
21
161.510741
31
0.0
0
LINE
8
Layer 1
62
4
5
243
100
AcDbEntity
100
AcDbLine
10
134.991938
20
161.510741
30
0.0
11
135.009407
21
167.534018
31
0.0
0
LINE
8
Layer 1
62
4
5
244
100
AcDbEntity
100
AcDbLine
10
135.009407
20
167.534018
30
0.0
11
134.919566
21
170.716560
31
0.0
0
LINE
8
Layer 1
62
4
5
245
100
AcDbEntity
100
AcDbLine
10
134.919566
20
170.716560
30
0.0
11
134.484488
21
173.866258
31
0.0
0
LINE
8
Layer 1
62
4
5
246
100
AcDbEntity
100
AcDbLine
10
134.484488
20
173.866258
30
0.0
11
133.906019
21
175.381733
31
0.0
0
LINE
8
Layer 1
62
4
5
247
100
AcDbEntity
100
AcDbLine
10
133.906019
20
175.381733
30
0.0
11
133.150037
21
176.780744
31
0.0
0
LINE
8
Layer 1
62
4
5
248
100
AcDbEntity
100
AcDbLine
10
133.150037
20
176.780744
30
0.0
11
132.229773
21
178.083851
31
0.0
0
LINE
8
Layer 1
62
4
5
249
100
AcDbEntity
100
AcDbLine
10
132.229773
20
178.083851
30
0.0
11
131.158460
21
179.311617
31
0.0
0
LINE
8
Layer 1
62
4
5
24a
100
AcDbEntity
100
AcDbLine
10
131.158460
20
179.311617
30
0.0
11
128.863517
21
181.514737
31
0.0
0
LINE
8
Layer 1
62
4
5
24b
100
AcDbEntity
100
AcDbLine
10
128.863517
20
181.514737
30
0.0
11
127.628476
21
182.510117
31
0.0
0
LINE
8
Layer 1
62
4
5
24c
100
AcDbEntity
100
AcDbLine
10
127.628476
20
182.510117
30
0.0
11
126.299081
21
183.393838
31
0.0
0
LINE
8
Layer 1
62
4
5
24d
100
AcDbEntity
100
AcDbLine
10
126.299081
20
183.393838
30
0.0
11
122.835569
21
185.567709
31
0.0
0
LINE
8
Layer 1
62
4
5
24e
100
AcDbEntity
100
AcDbLine
10
122.835569
20
185.567709
30
0.0
11
121.190480
21
186.776525
31
0.0
0
LINE
8
Layer 1
62
4
5
24f
100
AcDbEntity
100
AcDbLine
10
121.190480
20
186.776525
30
0.0
11
119.651486
21
188.125488
31
0.0
0
LINE
8
Layer 1
62
4
5
250
100
AcDbEntity
100
AcDbLine
10
119.651486
20
188.125488
30
0.0
11
117.121094
21
190.697617
31
0.0
0
LINE
8
Layer 1
62
4
5
251
100
AcDbEntity
100
AcDbLine
10
117.121094
20
190.697617
30
0.0
11
115.945344
21
192.063273
31
0.0
0
LINE
8
Layer 1
62
4
5
252
100
AcDbEntity
100
AcDbLine
10
115.945344
20
192.063273
30
0.0
11
114.891182
21
193.526194
31
0.0
0
LINE
8
Layer 1
62
4
5
253
100
AcDbEntity
100
AcDbLine
10
114.891182
20
193.526194
30
0.0
11
112.915551
21
196.643434
31
0.0
0
LINE
8
Layer 1
62
4
5
254
100
AcDbEntity
100
AcDbLine
10
112.915551
20
196.643434
30
0.0
11
112.125763
21
198.306940
31
0.0
0
LINE
8
Layer 1
62
4
5
255
100
AcDbEntity
100
AcDbLine
10
112.125763
20
198.306940
30
0.0
11
111.538916
21
200.059633
31
0.0
0
LINE
8
Layer 1
62
4
5
256
100
AcDbEntity
100
AcDbLine
10
111.538916
20
200.059633
30
0.0
11
110.640103
21
202.619112
31
0.0
0
LINE
8
Layer 1
62
4
5
257
100
AcDbEntity
100
AcDbLine
10
110.640103
20
202.619112
30
0.0
11
109.611228
21
205.126744
31
0.0
0
LINE
8
Layer 1
62
4
5
258
100
AcDbEntity
100
AcDbLine
10
109.611228
20
205.126744
30
0.0
11
107.974617
21
208.270658
31
0.0
0
LINE
8
Layer 1
62
4
5
259
100
AcDbEntity
100
AcDbLine
10
107.974617
20
208.270658
30
0.0
11
107.330351
21
209.912713
31
0.0
0
LINE
8
Layer 1
62
4
5
25a
100
AcDbEntity
100
AcDbLine
10
107.330351
20
209.912713
30
0.0
11
106.906111
21
211.642944
31
0.0
0
LINE
8
Layer 1
62
4
5
25b
100
AcDbEntity
100
AcDbLine
10
106.906111
20
211.642944
30
0.0
11
107.008731
21
213.575892
31
0.0
0
LINE
8
Layer 1
62
4
5
25c
100
AcDbEntity
100
AcDbLine
10
107.008731
20
213.575892
30
0.0
11
107.404265
21
215.434857
31
0.0
0
LINE
8
Layer 1
62
4
5
25d
100
AcDbEntity
100
AcDbLine
10
107.404265
20
215.434857
30
0.0
11
108.109381
21
217.198999
31
0.0
0
LINE
8
Layer 1
62
4
5
25e
100
AcDbEntity
100
AcDbLine
10
108.109381
20
217.198999
30
0.0
11
109.140749
21
218.847479
31
0.0
0
LINE
8
Layer 1
62
4
5
25f
100
AcDbEntity
100
AcDbLine
10
109.140749
20
218.847479
30
0.0
11
111.375859
21
221.819762
31
0.0
0
LINE
8
Layer 1
62
4
5
260
100
AcDbEntity
100
AcDbLine
10
111.375859
20
221.819762
30
0.0
11
112.943762
21
223.555280
31
0.0
0
LINE
8
Layer 1
62
4
5
261
100
AcDbEntity
100
AcDbLine
10
112.943762
20
223.555280
30
0.0
11
114.619847
21
225.181020
31
0.0
0
LINE
8
Layer 1
62
4
5
262
100
AcDbEntity
100
AcDbLine
10
114.619847
20
225.181020
30
0.0
11
118.136907
21
228.259492
31
0.0
0
LINE
8
Layer 1
62
4
5
263
100
AcDbEntity
100
AcDbLine
10
118.136907
20
228.259492
30
0.0
11
122.881168
21
231.716039
31
0.0
0
LINE
8
Layer 1
62
4
5
264
100
AcDbEntity
100
AcDbLine
10
122.881168
20
231.716039
30
0.0
11
127.814153
21
234.890988
31
0.0
0
LINE
8
Layer 1
62
4
5
265
100
AcDbEntity
100
AcDbLine
10
127.814153
20
234.890988
30
0.0
11
132.907745
21
237.810415
31
0.0
0
LINE
8
Layer 1
62
4
5
266
100
AcDbEntity
100
AcDbLine
10
132.907745
20
237.810415
30
0.0
11
138.133825
21
240.500398
31
0.0
0
LINE
8
Layer 1
62
4
5
267
100
AcDbEntity
100
AcDbLine
10
138.133825
20
240.500398
30
0.0
11
142.445226
21
242.233275
31
0.0
0
LINE
8
Layer 1
62
4
5
268
100
AcDbEntity
100
AcDbLine
10
142.445226
20
242.233275
30
0.0
11
146.874625
21
243.639251
31
0.0
0
LINE
8
Layer 1
62
4
5
269
100
AcDbEntity
100
AcDbLine
10
146.874625
20
243.639251
30
0.0
11
152.935115
21
244.896120
31
0.0
0
LINE
8
Layer 1
62
4
5
26a
100
AcDbEntity
100
AcDbLine
10
152.935115
20
244.896120
30
0.0
11
156.001201
21
245.271736
31
0.0
0
LINE
8
Layer 1
62
4
5
26b
100
AcDbEntity
100
AcDbLine
10
156.001201
20
245.271736
30
0.0
11
159.100334
21
245.377777
31
0.0
0
LINE
8
Layer 1
62
4
5
26c
100
AcDbEntity
100
AcDbLine
10
159.100334
20
245.377777
30
0.0
11
170.790670
21
245.421882
31
0.0
0
LINE
8
Layer 1
62
4
5
26d
100
AcDbEntity
100
AcDbLine
10
170.790670
20
245.421882
30
0.0
11
161.108887
21
238.387654
31
0.0
0
LINE
8
Layer 1
62
4
5
26e
100
AcDbEntity
100
AcDbLine
10
161.108887
20
238.387654
30
0.0
11
161.108861
21
238.387654
31
0.0
  0
ENDSEC
  0
SECTION
  2
OBJECTS
  0
DICTIONARY
  5
C
330
0
100
AcDbDictionary
  3
ACAD_GROUP
350
D
  3
ACAD_MLINESTYLE
350
17
  0
DICTIONARY
  5
D
330
C
100
AcDbDictionary
  0
DICTIONARY
  5
1A
330
C
100
AcDbDictionary
  0
DICTIONARY
  5
17
330
C
100
AcDbDictionary
  3
STANDARD
350
18
  0
DICTIONARY
  5
19
330
C
100
AcDbDictionary
  0
ENDSEC
  0
EOF
