999
Inkscape export via "Better DXF Output" (bob@bobcookdev.com)
  0
SECTION
  2
HEADER
  9
$ACADVER
  1
AC1014
  9
$HANDSEED
  5
FFFF
  0
ENDSEC
  0
SECTION
  2
TABLES
  0
TABLE
  2
VPORT
  5
8
330
0
100
AcDbSymbolTable
 70
     4
  0
VPORT
  5
2E
330
8
100
AcDbSymbolTableRecord
100
AcDbViewportTableRecord
  2
*ACTIVE
 70
     0
 10
0.0
 20
0.0
 11
1.0
 21
1.0
 12
4.25
 22
5.5
 13
0.0
 23
0.0
 14
10.0
 24
10.0
 15
10.0
 25
10.0
 16
0.0
 26
0.0
 36
1.0
 17
0.0
 27
0.0
 37
0.0
 40
11
 41
1.24
 42
50.0
 43
0.0
 44
0.0
 50
0.0
 51
0.0
 71
     0
 72
   100
 73
     1
 74
     3
 75
     0
 76
     0
 77
     0
 78
     0
  0
ENDTAB
  0
TABLE
  2
LTYPE
  5
5
330
0
100
AcDbSymbolTable
 70
     1
  0
LTYPE
  5
14
330
5
100
AcDbSymbolTableRecord
100
AcDbLinetypeTableRecord
  2
BYBLOCK
 70
     0
  3

 72
    65
 73
     0
 40
0.0
  0
LTYPE
  5
15
330
5
100
AcDbSymbolTableRecord
100
AcDbLinetypeTableRecord
  2
BYLAYER
 70
     0
  3

 72
    65
 73
     0
 40
0.0
  0
LTYPE
  5
16
330
5
100
AcDbSymbolTableRecord
100
AcDbLinetypeTableRecord
  2
CONTINUOUS
 70
     0
  3
Solid line
 72
    65
 73
     0
 40
0.0
  0
ENDTAB
  0
TABLE
  2
LAYER
  5
2
330
0
100
AcDbSymbolTable
 70
1
  0
LAYER
  5
10
330
2
100
AcDbSymbolTableRecord
100
AcDbLayerTableRecord
  2
0
 70
     0
 62
     7
  6
CONTINUOUS
  0
ENDTAB
  0
TABLE
  2
STYLE
  5
3
330
0
100
AcDbSymbolTable
 70
     1
  0
STYLE
  5
11
330
3
100
AcDbSymbolTableRecord
100
AcDbTextStyleTableRecord
  2
STANDARD
 70
     0
 40
0.0
 41
1.0
 50
0.0
 71
     0
 42
2.5
  3
txt
  4

  0
ENDTAB
  0
TABLE
  2
VIEW
  5
6
330
0
100
AcDbSymbolTable
 70
     0
  0
ENDTAB
  0
TABLE
  2
UCS
  5
7
330
0
100
AcDbSymbolTable
 70
     0
  0
ENDTAB
  0
TABLE
  2
APPID
  5
9
330
0
100
AcDbSymbolTable
 70
     2
  0
APPID
  5
12
330
9
100
AcDbSymbolTableRecord
100
AcDbRegAppTableRecord
  2
ACAD
 70
     0
  0
ENDTAB
  0
TABLE
  2
DIMSTYLE
  5
A
330
0
100
AcDbSymbolTable
 70
     1
  0
DIMSTYLE
105
27
330
A
100
AcDbSymbolTableRecord
100
AcDbDimStyleTableRecord
  2
ISO-25
 70
     0
  3

  4

  5

  6

  7

 40
1.0
 41
2.5
 42
0.625
 43
3.75
 44
1.25
 45
0.0
 46
0.0
 47
0.0
 48
0.0
140
2.5
141
2.5
142
0.0
143
0.03937007874016
144
1.0
145
0.0
146
1.0
147
0.625
 71
     0
 72
     0
 73
     0
 74
     0
 75
     0
 76
     0
 77
     1
 78
     8
170
     0
171
     3
172
     1
173
     0
174
     0
175
     0
176
     0
177
     0
178
     0
270
     2
271
     2
272
     2
273
     2
274
     3
340
11
275
     0
280
     0
281
     0
282
     0
283
     0
284
     8
285
     0
286
     0
287
     3
288
     0
  0
ENDTAB
  0
TABLE
  2
BLOCK_RECORD
  5
1
330
0
100
AcDbSymbolTable
 70
     1
  0
BLOCK_RECORD
  5
1F
330
1
100
AcDbSymbolTableRecord
100
AcDbBlockTableRecord
  2
*MODEL_SPACE
  0
BLOCK_RECORD
  5
1B
330
1
100
AcDbSymbolTableRecord
100
AcDbBlockTableRecord
  2
*PAPER_SPACE
  0
ENDTAB
  0
ENDSEC
  0
SECTION
  2
BLOCKS
  0
BLOCK
  5
20
330
1F
100
AcDbEntity
  8
0
100
AcDbBlockBegin
  2
*MODEL_SPACE
 70
     0
 10
0.0
 20
0.0
 30
0.0
  3
*MODEL_SPACE
  1

  0
ENDBLK
  5
21
330
1F
100
AcDbEntity
  8
0
100
AcDbBlockEnd
  0
BLOCK
  5
1C
330
1B
100
AcDbEntity
 67
     1
  8
0
100
AcDbBlockBegin
  2
*PAPER_SPACE
  1

  0
ENDBLK
  5
1D
330
1B
100
AcDbEntity
 67
     1
  8
0
100
AcDbBlockEnd
  0
ENDSEC
  0
SECTION
  2
ENTITIES
0
LINE
8
Layer 1
62
4
5
100
100
AcDbEntity
100
AcDbLine
10
97.163819
20
255.610347
30
0.0
11
94.807352
21
255.430414
31
0.0
0
LINE
8
Layer 1
62
4
5
101
100
AcDbEntity
100
AcDbLine
10
94.807352
20
255.430414
30
0.0
11
92.612347
21
254.914295
31
0.0
0
LINE
8
Layer 1
62
4
5
102
100
AcDbEntity
100
AcDbLine
10
92.612347
20
254.914295
30
0.0
11
90.625878
21
254.097511
31
0.0
0
LINE
8
Layer 1
62
4
5
103
100
AcDbEntity
100
AcDbLine
10
90.625878
20
254.097511
30
0.0
11
88.895022
21
253.015581
31
0.0
0
LINE
8
Layer 1
62
4
5
104
100
AcDbEntity
100
AcDbLine
10
88.895022
20
253.015581
30
0.0
11
87.466854
21
251.704025
31
0.0
0
LINE
8
Layer 1
62
4
5
105
100
AcDbEntity
100
AcDbLine
10
87.466854
20
251.704025
30
0.0
11
86.388450
21
250.198364
31
0.0
0
LINE
8
Layer 1
62
4
5
106
100
AcDbEntity
100
AcDbLine
10
86.388450
20
250.198364
30
0.0
11
85.706886
21
248.534117
31
0.0
0
LINE
8
Layer 1
62
4
5
107
100
AcDbEntity
100
AcDbLine
10
85.706886
20
248.534117
30
0.0
11
85.469236
21
246.746806
31
0.0
0
LINE
8
Layer 1
62
4
5
108
100
AcDbEntity
100
AcDbLine
10
85.469236
20
246.746806
30
0.0
11
85.551051
21
245.693699
31
0.0
0
LINE
8
Layer 1
62
4
5
109
100
AcDbEntity
100
AcDbLine
10
85.551051
20
245.693699
30
0.0
11
85.790218
21
244.676928
31
0.0
0
LINE
8
Layer 1
62
4
5
10a
100
AcDbEntity
100
AcDbLine
10
85.790218
20
244.676928
30
0.0
11
86.702954
21
242.780677
31
0.0
0
LINE
8
Layer 1
62
4
5
10b
100
AcDbEntity
100
AcDbLine
10
86.702954
20
242.780677
30
0.0
11
88.132130
21
241.114626
31
0.0
0
LINE
8
Layer 1
62
4
5
10c
100
AcDbEntity
100
AcDbLine
10
88.132130
20
241.114626
30
0.0
11
90.002431
21
239.735347
31
0.0
0
LINE
8
Layer 1
62
4
5
10d
100
AcDbEntity
100
AcDbLine
10
90.002431
20
239.735347
30
0.0
11
85.843368
21
239.035654
31
0.0
0
LINE
8
Layer 1
62
4
5
10e
100
AcDbEntity
100
AcDbLine
10
85.843368
20
239.035654
30
0.0
11
82.042638
21
238.088435
31
0.0
0
LINE
8
Layer 1
62
4
5
10f
100
AcDbEntity
100
AcDbLine
10
82.042638
20
238.088435
30
0.0
11
78.660715
21
236.918500
31
0.0
0
LINE
8
Layer 1
62
4
5
110
100
AcDbEntity
100
AcDbLine
10
78.660715
20
236.918500
30
0.0
11
75.758076
21
235.550657
31
0.0
0
LINE
8
Layer 1
62
4
5
111
100
AcDbEntity
100
AcDbLine
10
75.758076
20
235.550657
30
0.0
11
73.395195
21
234.009716
31
0.0
0
LINE
8
Layer 1
62
4
5
112
100
AcDbEntity
100
AcDbLine
10
73.395195
20
234.009716
30
0.0
11
71.632549
21
232.320485
31
0.0
0
LINE
8
Layer 1
62
4
5
113
100
AcDbEntity
100
AcDbLine
10
71.632549
20
232.320485
30
0.0
11
70.995212
21
231.428013
31
0.0
0
LINE
8
Layer 1
62
4
5
114
100
AcDbEntity
100
AcDbLine
10
70.995212
20
231.428013
30
0.0
11
70.530612
21
230.507773
31
0.0
0
LINE
8
Layer 1
62
4
5
115
100
AcDbEntity
100
AcDbLine
10
70.530612
20
230.507773
30
0.0
11
70.246309
21
229.562864
31
0.0
0
LINE
8
Layer 1
62
4
5
116
100
AcDbEntity
100
AcDbLine
10
70.246309
20
229.562864
30
0.0
11
70.149861
21
228.596389
31
0.0
0
LINE
8
Layer 1
62
4
5
117
100
AcDbEntity
100
AcDbLine
10
70.149861
20
228.596389
30
0.0
11
70.300899
21
227.390663
31
0.0
0
LINE
8
Layer 1
62
4
5
118
100
AcDbEntity
100
AcDbLine
10
70.300899
20
227.390663
30
0.0
11
70.743718
21
226.220804
31
0.0
0
LINE
8
Layer 1
62
4
5
119
100
AcDbEntity
100
AcDbLine
10
70.743718
20
226.220804
30
0.0
11
71.462872
21
225.092210
31
0.0
0
LINE
8
Layer 1
62
4
5
11a
100
AcDbEntity
100
AcDbLine
10
71.462872
20
225.092210
30
0.0
11
72.442917
21
224.010278
31
0.0
0
LINE
8
Layer 1
62
4
5
11b
100
AcDbEntity
100
AcDbLine
10
72.442917
20
224.010278
30
0.0
11
64.947404
21
223.252910
31
0.0
0
LINE
8
Layer 1
62
4
5
11c
100
AcDbEntity
100
AcDbLine
10
64.947404
20
223.252910
30
0.0
11
58.137740
21
222.306494
31
0.0
0
LINE
8
Layer 1
62
4
5
11d
100
AcDbEntity
100
AcDbLine
10
58.137740
20
222.306494
30
0.0
11
52.110566
21
221.189331
31
0.0
0
LINE
8
Layer 1
62
4
5
11e
100
AcDbEntity
100
AcDbLine
10
52.110566
20
221.189331
30
0.0
11
46.962528
21
219.919716
31
0.0
0
LINE
8
Layer 1
62
4
5
11f
100
AcDbEntity
100
AcDbLine
10
46.962528
20
219.919716
30
0.0
11
42.790267
21
218.515949
31
0.0
0
LINE
8
Layer 1
62
4
5
120
100
AcDbEntity
100
AcDbLine
10
42.790267
20
218.515949
30
0.0
11
39.690427
21
216.996326
31
0.0
0
LINE
8
Layer 1
62
4
5
121
100
AcDbEntity
100
AcDbLine
10
39.690427
20
216.996326
30
0.0
11
38.572866
21
216.198787
31
0.0
0
LINE
8
Layer 1
62
4
5
122
100
AcDbEntity
100
AcDbLine
10
38.572866
20
216.198787
30
0.0
11
37.759651
21
215.379147
31
0.0
0
LINE
8
Layer 1
62
4
5
123
100
AcDbEntity
100
AcDbLine
10
37.759651
20
215.379147
30
0.0
11
37.262864
21
214.539691
31
0.0
0
LINE
8
Layer 1
62
4
5
124
100
AcDbEntity
100
AcDbLine
10
37.262864
20
214.539691
30
0.0
11
37.094583
21
213.682708
31
0.0
0
LINE
8
Layer 1
62
4
5
125
100
AcDbEntity
100
AcDbLine
10
37.094583
20
213.682708
30
0.0
11
37.347459
21
212.633443
31
0.0
0
LINE
8
Layer 1
62
4
5
126
100
AcDbEntity
100
AcDbLine
10
37.347459
20
212.633443
30
0.0
11
38.091122
21
211.611160
31
0.0
0
LINE
8
Layer 1
62
4
5
127
100
AcDbEntity
100
AcDbLine
10
38.091122
20
211.611160
30
0.0
11
39.303125
21
210.620129
31
0.0
0
LINE
8
Layer 1
62
4
5
128
100
AcDbEntity
100
AcDbLine
10
39.303125
20
210.620129
30
0.0
11
40.961020
21
209.664620
31
0.0
0
LINE
8
Layer 1
62
4
5
129
100
AcDbEntity
100
AcDbLine
10
40.961020
20
209.664620
30
0.0
11
43.042359
21
208.748902
31
0.0
0
LINE
8
Layer 1
62
4
5
12a
100
AcDbEntity
100
AcDbLine
10
43.042359
20
208.748902
30
0.0
11
45.524695
21
207.877245
31
0.0
0
LINE
8
Layer 1
62
4
5
12b
100
AcDbEntity
100
AcDbLine
10
45.524695
20
207.877245
30
0.0
11
51.602569
21
206.283194
31
0.0
0
LINE
8
Layer 1
62
4
5
12c
100
AcDbEntity
100
AcDbLine
10
51.602569
20
206.283194
30
0.0
11
51.602569
21
118.415069
31
0.0
0
LINE
8
Layer 1
62
4
5
12d
100
AcDbEntity
100
AcDbLine
10
51.602569
20
118.415069
30
0.0
11
48.528613
21
117.059798
31
0.0
0
LINE
8
Layer 1
62
4
5
12e
100
AcDbEntity
100
AcDbLine
10
48.528613
20
117.059798
30
0.0
11
46.252258
21
115.611676
31
0.0
0
LINE
8
Layer 1
62
4
5
12f
100
AcDbEntity
100
AcDbLine
10
46.252258
20
115.611676
30
0.0
11
45.433544
21
114.856821
31
0.0
0
LINE
8
Layer 1
62
4
5
130
100
AcDbEntity
100
AcDbLine
10
45.433544
20
114.856821
30
0.0
11
44.838664
21
114.083584
31
0.0
0
LINE
8
Layer 1
62
4
5
131
100
AcDbEntity
100
AcDbLine
10
44.838664
20
114.083584
30
0.0
11
44.475763
21
113.293574
31
0.0
0
LINE
8
Layer 1
62
4
5
132
100
AcDbEntity
100
AcDbLine
10
44.475763
20
113.293574
30
0.0
11
44.352986
21
112.488403
31
0.0
0
LINE
8
Layer 1
62
4
5
133
100
AcDbEntity
100
AcDbLine
10
44.352986
20
112.488403
30
0.0
11
44.551499
21
111.463727
31
0.0
0
LINE
8
Layer 1
62
4
5
134
100
AcDbEntity
100
AcDbLine
10
44.551499
20
111.463727
30
0.0
11
45.136037
21
110.463682
31
0.0
0
LINE
8
Layer 1
62
4
5
135
100
AcDbEntity
100
AcDbLine
10
45.136037
20
110.463682
30
0.0
11
46.090105
21
109.491951
31
0.0
0
LINE
8
Layer 1
62
4
5
136
100
AcDbEntity
100
AcDbLine
10
46.090105
20
109.491951
30
0.0
11
47.397204
21
108.552214
31
0.0
0
LINE
8
Layer 1
62
4
5
137
100
AcDbEntity
100
AcDbLine
10
47.397204
20
108.552214
30
0.0
11
49.040838
21
107.648155
31
0.0
0
LINE
8
Layer 1
62
4
5
138
100
AcDbEntity
100
AcDbLine
10
49.040838
20
107.648155
30
0.0
11
51.004507
21
106.783456
31
0.0
0
LINE
8
Layer 1
62
4
5
139
100
AcDbEntity
100
AcDbLine
10
51.004507
20
106.783456
30
0.0
11
55.825965
21
105.186865
31
0.0
0
LINE
8
Layer 1
62
4
5
13a
100
AcDbEntity
100
AcDbLine
10
55.825965
20
105.186865
30
0.0
11
61.729599
21
103.791898
31
0.0
0
LINE
8
Layer 1
62
4
5
13b
100
AcDbEntity
100
AcDbLine
10
61.729599
20
103.791898
30
0.0
11
68.583428
21
102.628014
31
0.0
0
LINE
8
Layer 1
62
4
5
13c
100
AcDbEntity
100
AcDbLine
10
68.583428
20
102.628014
30
0.0
11
76.255471
21
101.724668
31
0.0
0
LINE
8
Layer 1
62
4
5
13d
100
AcDbEntity
100
AcDbLine
10
76.255471
20
101.724668
30
0.0
11
84.613750
21
101.111319
31
0.0
0
LINE
8
Layer 1
62
4
5
13e
100
AcDbEntity
100
AcDbLine
10
84.613750
20
101.111319
30
0.0
11
82.012596
21
100.199210
31
0.0
0
LINE
8
Layer 1
62
4
5
13f
100
AcDbEntity
100
AcDbLine
10
82.012596
20
100.199210
30
0.0
11
79.670711
21
99.151638
31
0.0
0
LINE
8
Layer 1
62
4
5
140
100
AcDbEntity
100
AcDbLine
10
79.670711
20
99.151638
30
0.0
11
77.615079
21
97.980955
31
0.0
0
LINE
8
Layer 1
62
4
5
141
100
AcDbEntity
100
AcDbLine
10
77.615079
20
97.980955
30
0.0
11
75.872686
21
96.699513
31
0.0
0
LINE
8
Layer 1
62
4
5
142
100
AcDbEntity
100
AcDbLine
10
75.872686
20
96.699513
30
0.0
11
74.470517
21
95.319664
31
0.0
0
LINE
8
Layer 1
62
4
5
143
100
AcDbEntity
100
AcDbLine
10
74.470517
20
95.319664
30
0.0
11
73.435558
21
93.853760
31
0.0
0
LINE
8
Layer 1
62
4
5
144
100
AcDbEntity
100
AcDbLine
10
73.435558
20
93.853760
30
0.0
11
72.794793
21
92.314153
31
0.0
0
LINE
8
Layer 1
62
4
5
145
100
AcDbEntity
100
AcDbLine
10
72.794793
20
92.314153
30
0.0
11
72.575208
21
90.713194
31
0.0
0
LINE
8
Layer 1
62
4
5
146
100
AcDbEntity
100
AcDbLine
10
72.575208
20
90.713194
30
0.0
11
72.664670
21
89.688687
31
0.0
0
LINE
8
Layer 1
62
4
5
147
100
AcDbEntity
100
AcDbLine
10
72.664670
20
89.688687
30
0.0
11
72.928428
21
88.687089
31
0.0
0
LINE
8
Layer 1
62
4
5
148
100
AcDbEntity
100
AcDbLine
10
72.928428
20
88.687089
30
0.0
11
73.359539
21
87.711597
31
0.0
0
LINE
8
Layer 1
62
4
5
149
100
AcDbEntity
100
AcDbLine
10
73.359539
20
87.711597
30
0.0
11
73.951061
21
86.765405
31
0.0
0
LINE
8
Layer 1
62
4
5
14a
100
AcDbEntity
100
AcDbLine
10
73.951061
20
86.765405
30
0.0
11
75.587567
21
84.973708
31
0.0
0
LINE
8
Layer 1
62
4
5
14b
100
AcDbEntity
100
AcDbLine
10
75.587567
20
84.973708
30
0.0
11
77.782407
21
83.337565
31
0.0
0
LINE
8
Layer 1
62
4
5
14c
100
AcDbEntity
100
AcDbLine
10
77.782407
20
83.337565
30
0.0
11
80.480040
21
81.882542
31
0.0
0
LINE
8
Layer 1
62
4
5
14d
100
AcDbEntity
100
AcDbLine
10
80.480040
20
81.882542
30
0.0
11
83.624927
21
80.634206
31
0.0
0
LINE
8
Layer 1
62
4
5
14e
100
AcDbEntity
100
AcDbLine
10
83.624927
20
80.634206
30
0.0
11
87.161529
21
79.618123
31
0.0
0
LINE
8
Layer 1
62
4
5
14f
100
AcDbEntity
100
AcDbLine
10
87.161529
20
79.618123
30
0.0
11
91.034306
21
78.859861
31
0.0
0
LINE
8
Layer 1
62
4
5
150
100
AcDbEntity
100
AcDbLine
10
91.034306
20
78.859861
30
0.0
11
89.719180
21
77.769791
31
0.0
0
LINE
8
Layer 1
62
4
5
151
100
AcDbEntity
100
AcDbLine
10
89.719180
20
77.769791
30
0.0
11
88.731517
21
76.543525
31
0.0
0
LINE
8
Layer 1
62
4
5
152
100
AcDbEntity
100
AcDbLine
10
88.731517
20
76.543525
30
0.0
11
88.110317
21
75.205427
31
0.0
0
LINE
8
Layer 1
62
4
5
153
100
AcDbEntity
100
AcDbLine
10
88.110317
20
75.205427
30
0.0
11
87.894583
21
73.779861
31
0.0
0
LINE
8
Layer 1
62
4
5
154
100
AcDbEntity
100
AcDbLine
10
87.894583
20
73.779861
30
0.0
11
88.148453
21
72.236256
31
0.0
0
LINE
8
Layer 1
62
4
5
155
100
AcDbEntity
100
AcDbLine
10
88.148453
20
72.236256
30
0.0
11
88.876574
21
70.798907
31
0.0
0
LINE
8
Layer 1
62
4
5
156
100
AcDbEntity
100
AcDbLine
10
88.876574
20
70.798907
30
0.0
11
90.028718
21
69.498499
31
0.0
0
LINE
8
Layer 1
62
4
5
157
100
AcDbEntity
100
AcDbLine
10
90.028718
20
69.498499
30
0.0
11
91.554654
21
68.365718
31
0.0
0
LINE
8
Layer 1
62
4
5
158
100
AcDbEntity
100
AcDbLine
10
91.554654
20
68.365718
30
0.0
11
93.404154
21
67.431250
31
0.0
0
LINE
8
Layer 1
62
4
5
159
100
AcDbEntity
100
AcDbLine
10
93.404154
20
67.431250
30
0.0
11
95.526987
21
66.725781
31
0.0
0
LINE
8
Layer 1
62
4
5
15a
100
AcDbEntity
100
AcDbLine
10
95.526987
20
66.725781
30
0.0
11
97.872925
21
66.279997
31
0.0
0
LINE
8
Layer 1
62
4
5
15b
100
AcDbEntity
100
AcDbLine
10
97.872925
20
66.279997
30
0.0
11
100.391736
21
66.124583
31
0.0
0
LINE
8
Layer 1
62
4
5
15c
100
AcDbEntity
100
AcDbLine
10
100.391736
20
66.124583
30
0.0
11
102.910548
21
66.279997
31
0.0
0
LINE
8
Layer 1
62
4
5
15d
100
AcDbEntity
100
AcDbLine
10
102.910548
20
66.279997
30
0.0
11
105.256485
21
66.725781
31
0.0
0
LINE
8
Layer 1
62
4
5
15e
100
AcDbEntity
100
AcDbLine
10
105.256485
20
66.725781
30
0.0
11
107.379318
21
67.431250
31
0.0
0
LINE
8
Layer 1
62
4
5
15f
100
AcDbEntity
100
AcDbLine
10
107.379318
20
67.431250
30
0.0
11
109.228818
21
68.365718
31
0.0
0
LINE
8
Layer 1
62
4
5
160
100
AcDbEntity
100
AcDbLine
10
109.228818
20
68.365718
30
0.0
11
110.754755
21
69.498499
31
0.0
0
LINE
8
Layer 1
62
4
5
161
100
AcDbEntity
100
AcDbLine
10
110.754755
20
69.498499
30
0.0
11
111.906898
21
70.798907
31
0.0
0
LINE
8
Layer 1
62
4
5
162
100
AcDbEntity
100
AcDbLine
10
111.906898
20
70.798907
30
0.0
11
112.635020
21
72.236256
31
0.0
0
LINE
8
Layer 1
62
4
5
163
100
AcDbEntity
100
AcDbLine
10
112.635020
20
72.236256
30
0.0
11
112.888889
21
73.779861
31
0.0
0
LINE
8
Layer 1
62
4
5
164
100
AcDbEntity
100
AcDbLine
10
112.888889
20
73.779861
30
0.0
11
112.649136
21
75.279583
31
0.0
0
LINE
8
Layer 1
62
4
5
165
100
AcDbEntity
100
AcDbLine
10
112.649136
20
75.279583
30
0.0
11
111.960710
21
76.679961
31
0.0
0
LINE
8
Layer 1
62
4
5
166
100
AcDbEntity
100
AcDbLine
10
111.960710
20
76.679961
30
0.0
11
110.869864
21
77.953206
31
0.0
0
LINE
8
Layer 1
62
4
5
167
100
AcDbEntity
100
AcDbLine
10
110.869864
20
77.953206
30
0.0
11
109.422847
21
79.071528
31
0.0
0
LINE
8
Layer 1
62
4
5
168
100
AcDbEntity
100
AcDbLine
10
109.422847
20
79.071528
30
0.0
11
113.047178
21
79.877045
31
0.0
0
LINE
8
Layer 1
62
4
5
169
100
AcDbEntity
100
AcDbLine
10
113.047178
20
79.877045
30
0.0
11
116.347268
21
80.913511
31
0.0
0
LINE
8
Layer 1
62
4
5
16a
100
AcDbEntity
100
AcDbLine
10
116.347268
20
80.913511
30
0.0
11
119.274108
21
82.158265
31
0.0
0
LINE
8
Layer 1
62
4
5
16b
100
AcDbEntity
100
AcDbLine
10
119.274108
20
82.158265
30
0.0
11
121.778692
21
83.588645
31
0.0
0
LINE
8
Layer 1
62
4
5
16c
100
AcDbEntity
100
AcDbLine
10
121.778692
20
83.588645
30
0.0
11
123.812011
21
85.181989
31
0.0
0
LINE
8
Layer 1
62
4
5
16d
100
AcDbEntity
100
AcDbLine
10
123.812011
20
85.181989
30
0.0
11
125.325059
21
86.915637
31
0.0
0
LINE
8
Layer 1
62
4
5
16e
100
AcDbEntity
100
AcDbLine
10
125.325059
20
86.915637
30
0.0
11
126.268826
21
88.766926
31
0.0
0
LINE
8
Layer 1
62
4
5
16f
100
AcDbEntity
100
AcDbLine
10
126.268826
20
88.766926
30
0.0
11
126.511915
21
89.729604
31
0.0
0
LINE
8
Layer 1
62
4
5
170
100
AcDbEntity
100
AcDbLine
10
126.511915
20
89.729604
30
0.0
11
126.594306
21
90.713194
31
0.0
0
LINE
8
Layer 1
62
4
5
171
100
AcDbEntity
100
AcDbLine
10
126.594306
20
90.713194
30
0.0
11
126.354792
21
92.385534
31
0.0
0
LINE
8
Layer 1
62
4
5
172
100
AcDbEntity
100
AcDbLine
10
126.354792
20
92.385534
30
0.0
11
125.656729
21
93.990637
31
0.0
0
LINE
8
Layer 1
62
4
5
173
100
AcDbEntity
100
AcDbLine
10
125.656729
20
93.990637
30
0.0
11
124.530839
21
95.514251
31
0.0
0
LINE
8
Layer 1
62
4
5
174
100
AcDbEntity
100
AcDbLine
10
124.530839
20
95.514251
30
0.0
11
123.007841
21
96.942125
31
0.0
0
LINE
8
Layer 1
62
4
5
175
100
AcDbEntity
100
AcDbLine
10
123.007841
20
96.942125
30
0.0
11
121.118455
21
98.260007
31
0.0
0
LINE
8
Layer 1
62
4
5
176
100
AcDbEntity
100
AcDbLine
10
121.118455
20
98.260007
30
0.0
11
118.893400
21
99.453644
31
0.0
0
LINE
8
Layer 1
62
4
5
177
100
AcDbEntity
100
AcDbLine
10
118.893400
20
99.453644
30
0.0
11
116.363398
21
100.508786
31
0.0
0
LINE
8
Layer 1
62
4
5
178
100
AcDbEntity
100
AcDbLine
10
116.363398
20
100.508786
30
0.0
11
113.559167
21
101.411181
31
0.0
0
LINE
8
Layer 1
62
4
5
179
100
AcDbEntity
100
AcDbLine
10
113.559167
20
101.411181
30
0.0
11
121.034258
21
102.124579
31
0.0
0
LINE
8
Layer 1
62
4
5
17a
100
AcDbEntity
100
AcDbLine
10
121.034258
20
102.124579
30
0.0
11
127.858973
21
103.077313
31
0.0
0
LINE
8
Layer 1
62
4
5
17b
100
AcDbEntity
100
AcDbLine
10
127.858973
20
103.077313
30
0.0
11
133.926575
21
104.245607
31
0.0
0
LINE
8
Layer 1
62
4
5
17c
100
AcDbEntity
100
AcDbLine
10
133.926575
20
104.245607
30
0.0
11
139.130326
21
105.605688
31
0.0
0
LINE
8
Layer 1
62
4
5
17d
100
AcDbEntity
100
AcDbLine
10
139.130326
20
105.605688
30
0.0
11
143.363489
21
107.133782
31
0.0
0
LINE
8
Layer 1
62
4
5
17e
100
AcDbEntity
100
AcDbLine
10
143.363489
20
107.133782
30
0.0
11
145.082745
21
107.953405
31
0.0
0
LINE
8
Layer 1
62
4
5
17f
100
AcDbEntity
100
AcDbLine
10
145.082745
20
107.953405
30
0.0
11
146.519328
21
108.806116
31
0.0
0
LINE
8
Layer 1
62
4
5
180
100
AcDbEntity
100
AcDbLine
10
146.519328
20
108.806116
30
0.0
11
147.659895
21
109.688942
31
0.0
0
LINE
8
Layer 1
62
4
5
181
100
AcDbEntity
100
AcDbLine
10
147.659895
20
109.688942
30
0.0
11
148.491105
21
110.598914
31
0.0
0
LINE
8
Layer 1
62
4
5
182
100
AcDbEntity
100
AcDbLine
10
148.491105
20
110.598914
30
0.0
11
148.999615
21
111.533058
31
0.0
0
LINE
8
Layer 1
62
4
5
183
100
AcDbEntity
100
AcDbLine
10
148.999615
20
111.533058
30
0.0
11
149.172083
21
112.488403
31
0.0
0
LINE
8
Layer 1
62
4
5
184
100
AcDbEntity
100
AcDbLine
10
149.172083
20
112.488403
30
0.0
11
149.020778
21
113.383333
31
0.0
0
LINE
8
Layer 1
62
4
5
185
100
AcDbEntity
100
AcDbLine
10
149.020778
20
113.383333
30
0.0
11
148.574182
21
114.259965
31
0.0
0
LINE
8
Layer 1
62
4
5
186
100
AcDbEntity
100
AcDbLine
10
148.574182
20
114.259965
30
0.0
11
147.843280
21
115.115828
31
0.0
0
LINE
8
Layer 1
62
4
5
187
100
AcDbEntity
100
AcDbLine
10
147.843280
20
115.115828
30
0.0
11
146.839052
21
115.948452
31
0.0
0
LINE
8
Layer 1
62
4
5
188
100
AcDbEntity
100
AcDbLine
10
146.839052
20
115.948452
30
0.0
11
144.054552
21
117.534102
31
0.0
0
LINE
8
Layer 1
62
4
5
189
100
AcDbEntity
100
AcDbLine
10
144.054552
20
117.534102
30
0.0
11
140.308542
21
118.997153
31
0.0
0
LINE
8
Layer 1
62
4
5
18a
100
AcDbEntity
100
AcDbLine
10
140.308542
20
118.997153
30
0.0
11
140.308542
21
206.106806
31
0.0
0
LINE
8
Layer 1
62
4
5
18b
100
AcDbEntity
100
AcDbLine
10
140.308542
20
206.106806
30
0.0
11
146.717454
21
207.725659
31
0.0
0
LINE
8
Layer 1
62
4
5
18c
100
AcDbEntity
100
AcDbLine
10
146.717454
20
207.725659
30
0.0
11
149.338250
21
208.615610
31
0.0
0
LINE
8
Layer 1
62
4
5
18d
100
AcDbEntity
100
AcDbLine
10
149.338250
20
208.615610
30
0.0
11
151.537349
21
209.552980
31
0.0
0
LINE
8
Layer 1
62
4
5
18e
100
AcDbEntity
100
AcDbLine
10
151.537349
20
209.552980
30
0.0
11
153.290308
21
210.533072
31
0.0
0
LINE
8
Layer 1
62
4
5
18f
100
AcDbEntity
100
AcDbLine
10
153.290308
20
210.533072
30
0.0
11
154.572684
21
211.551189
31
0.0
0
LINE
8
Layer 1
62
4
5
190
100
AcDbEntity
100
AcDbLine
10
154.572684
20
211.551189
30
0.0
11
155.360035
21
212.602633
31
0.0
0
LINE
8
Layer 1
62
4
5
191
100
AcDbEntity
100
AcDbLine
10
155.360035
20
212.602633
30
0.0
11
155.627917
21
213.682708
31
0.0
0
LINE
8
Layer 1
62
4
5
192
100
AcDbEntity
100
AcDbLine
10
155.627917
20
213.682708
30
0.0
11
155.482765
21
214.478810
31
0.0
0
LINE
8
Layer 1
62
4
5
193
100
AcDbEntity
100
AcDbLine
10
155.482765
20
214.478810
30
0.0
11
155.053751
21
215.259839
31
0.0
0
LINE
8
Layer 1
62
4
5
194
100
AcDbEntity
100
AcDbLine
10
155.053751
20
215.259839
30
0.0
11
154.350541
21
216.023982
31
0.0
0
LINE
8
Layer 1
62
4
5
195
100
AcDbEntity
100
AcDbLine
10
154.350541
20
216.023982
30
0.0
11
153.382797
21
216.769425
31
0.0
0
LINE
8
Layer 1
62
4
5
196
100
AcDbEntity
100
AcDbLine
10
153.382797
20
216.769425
30
0.0
11
150.692367
21
218.196951
31
0.0
0
LINE
8
Layer 1
62
4
5
197
100
AcDbEntity
100
AcDbLine
10
150.692367
20
218.196951
30
0.0
11
147.059773
21
219.527907
31
0.0
0
LINE
8
Layer 1
62
4
5
198
100
AcDbEntity
100
AcDbLine
10
147.059773
20
219.527907
30
0.0
11
142.562330
21
220.747779
31
0.0
0
LINE
8
Layer 1
62
4
5
199
100
AcDbEntity
100
AcDbLine
10
142.562330
20
220.747779
30
0.0
11
137.277349
21
221.842054
31
0.0
0
LINE
8
Layer 1
62
4
5
19a
100
AcDbEntity
100
AcDbLine
10
137.277349
20
221.842054
30
0.0
11
131.282144
21
222.796220
31
0.0
0
LINE
8
Layer 1
62
4
5
19b
100
AcDbEntity
100
AcDbLine
10
131.282144
20
222.796220
30
0.0
11
124.654028
21
223.595764
31
0.0
0
LINE
8
Layer 1
62
4
5
19c
100
AcDbEntity
100
AcDbLine
10
124.654028
20
223.595764
30
0.0
11
125.827814
21
224.765425
31
0.0
0
LINE
8
Layer 1
62
4
5
19d
100
AcDbEntity
100
AcDbLine
10
125.827814
20
224.765425
30
0.0
11
126.691051
21
225.993367
31
0.0
0
LINE
8
Layer 1
62
4
5
19e
100
AcDbEntity
100
AcDbLine
10
126.691051
20
225.993367
30
0.0
11
127.223693
21
227.272664
31
0.0
0
LINE
8
Layer 1
62
4
5
19f
100
AcDbEntity
100
AcDbLine
10
127.223693
20
227.272664
30
0.0
11
127.405694
21
228.596389
31
0.0
0
LINE
8
Layer 1
62
4
5
1a0
100
AcDbEntity
100
AcDbLine
10
127.405694
20
228.596389
30
0.0
11
127.293730
21
229.637307
31
0.0
0
LINE
8
Layer 1
62
4
5
1a1
100
AcDbEntity
100
AcDbLine
10
127.293730
20
229.637307
30
0.0
11
126.964149
21
230.652665
31
0.0
0
LINE
8
Layer 1
62
4
5
1a2
100
AcDbEntity
100
AcDbLine
10
126.964149
20
230.652665
30
0.0
11
126.426416
21
231.638609
31
0.0
0
LINE
8
Layer 1
62
4
5
1a3
100
AcDbEntity
100
AcDbLine
10
126.426416
20
231.638609
30
0.0
11
125.690000
21
232.591288
31
0.0
0
LINE
8
Layer 1
62
4
5
1a4
100
AcDbEntity
100
AcDbLine
10
125.690000
20
232.591288
30
0.0
11
124.764365
21
233.506849
31
0.0
0
LINE
8
Layer 1
62
4
5
1a5
100
AcDbEntity
100
AcDbLine
10
124.764365
20
233.506849
30
0.0
11
123.658980
21
234.381438
31
0.0
0
LINE
8
Layer 1
62
4
5
1a6
100
AcDbEntity
100
AcDbLine
10
123.658980
20
234.381438
30
0.0
11
120.946822
21
235.992295
31
0.0
0
LINE
8
Layer 1
62
4
5
1a7
100
AcDbEntity
100
AcDbLine
10
120.946822
20
235.992295
30
0.0
11
117.629258
21
237.393039
31
0.0
0
LINE
8
Layer 1
62
4
5
1a8
100
AcDbEntity
100
AcDbLine
10
117.629258
20
237.393039
30
0.0
11
113.782021
21
238.552849
31
0.0
0
LINE
8
Layer 1
62
4
5
1a9
100
AcDbEntity
100
AcDbLine
10
113.782021
20
238.552849
30
0.0
11
109.480844
21
239.440906
31
0.0
0
LINE
8
Layer 1
62
4
5
1aa
100
AcDbEntity
100
AcDbLine
10
109.480844
20
239.440906
30
0.0
11
104.801458
21
240.026389
31
0.0
0
LINE
8
Layer 1
62
4
5
1ab
100
AcDbEntity
100
AcDbLine
10
104.801458
20
240.026389
30
0.0
11
106.482652
21
241.385241
31
0.0
0
LINE
8
Layer 1
62
4
5
1ac
100
AcDbEntity
100
AcDbLine
10
106.482652
20
241.385241
30
0.0
11
107.760861
21
242.990155
31
0.0
0
LINE
8
Layer 1
62
4
5
1ad
100
AcDbEntity
100
AcDbLine
10
107.760861
20
242.990155
30
0.0
11
108.573604
21
244.793290
31
0.0
0
LINE
8
Layer 1
62
4
5
1ae
100
AcDbEntity
100
AcDbLine
10
108.573604
20
244.793290
30
0.0
11
108.858403
21
246.746806
31
0.0
0
LINE
8
Layer 1
62
4
5
1af
100
AcDbEntity
100
AcDbLine
10
108.858403
20
246.746806
30
0.0
11
108.620753
21
248.534117
31
0.0
0
LINE
8
Layer 1
62
4
5
1b0
100
AcDbEntity
100
AcDbLine
10
108.620753
20
248.534117
30
0.0
11
107.939189
21
250.198364
31
0.0
0
LINE
8
Layer 1
62
4
5
1b1
100
AcDbEntity
100
AcDbLine
10
107.939189
20
250.198364
30
0.0
11
106.860785
21
251.704025
31
0.0
0
LINE
8
Layer 1
62
4
5
1b2
100
AcDbEntity
100
AcDbLine
10
106.860785
20
251.704025
30
0.0
11
105.432617
21
253.015581
31
0.0
0
LINE
8
Layer 1
62
4
5
1b3
100
AcDbEntity
100
AcDbLine
10
105.432617
20
253.015581
30
0.0
11
103.701761
21
254.097511
31
0.0
0
LINE
8
Layer 1
62
4
5
1b4
100
AcDbEntity
100
AcDbLine
10
103.701761
20
254.097511
30
0.0
11
101.715292
21
254.914295
31
0.0
0
LINE
8
Layer 1
62
4
5
1b5
100
AcDbEntity
100
AcDbLine
10
101.715292
20
254.914295
30
0.0
11
99.520286
21
255.430414
31
0.0
0
LINE
8
Layer 1
62
4
5
1b6
100
AcDbEntity
100
AcDbLine
10
99.520286
20
255.430414
30
0.0
11
97.163819
21
255.610347
31
0.0
0
LINE
8
Layer 1
62
4
5
1b7
100
AcDbEntity
100
AcDbLine
10
97.163819
20
255.610347
30
0.0
11
97.163819
21
255.610347
31
0.0
0
LINE
8
Layer 1
62
4
5
1b8
100
AcDbEntity
100
AcDbLine
10
82.250139
20
182.232569
30
0.0
11
110.472361
21
182.232569
31
0.0
0
LINE
8
Layer 1
62
4
5
1b9
100
AcDbEntity
100
AcDbLine
10
110.472361
20
182.232569
30
0.0
11
110.472361
21
153.207778
31
0.0
0
LINE
8
Layer 1
62
4
5
1ba
100
AcDbEntity
100
AcDbLine
10
110.472361
20
153.207778
30
0.0
11
82.250139
21
153.207778
31
0.0
0
LINE
8
Layer 1
62
4
5
1bb
100
AcDbEntity
100
AcDbLine
10
82.250139
20
153.207778
30
0.0
11
82.250139
21
182.232569
31
0.0
0
LINE
8
Layer 1
62
4
5
1bc
100
AcDbEntity
100
AcDbLine
10
82.250139
20
182.232569
30
0.0
11
82.250139
21
182.232569
31
0.0
  0
ENDSEC
  0
SECTION
  2
OBJECTS
  0
DICTIONARY
  5
C
330
0
100
AcDbDictionary
  3
ACAD_GROUP
350
D
  3
ACAD_MLINESTYLE
350
17
  0
DICTIONARY
  5
D
330
C
100
AcDbDictionary
  0
DICTIONARY
  5
1A
330
C
100
AcDbDictionary
  0
DICTIONARY
  5
17
330
C
100
AcDbDictionary
  3
STANDARD
350
18
  0
DICTIONARY
  5
19
330
C
100
AcDbDictionary
  0
ENDSEC
  0
EOF
